<svg width="11" height="18" viewBox="0 0 11 18" fill="none" xmlns="http://www.w3.org/2000/svg">
<path d="M10.1482 0.396208C10.4066 0.649976 10.5517 0.994114 10.5517 1.35294C10.5517 1.71177 10.4066 2.05591 10.1482 2.30968L3.3265 9.00817L10.1482 15.7067C10.3993 15.9619 10.5382 16.3037 10.535 16.6585C10.5319 17.0133 10.387 17.3527 10.1314 17.6036C9.87592 17.8545 9.53027 17.9969 9.16893 17.9999C8.80759 18.003 8.45947 17.8666 8.19956 17.6201L0.403497 9.9649C0.145138 9.71113 0 9.367 0 9.00817C0 8.64934 0.145138 8.3052 0.403497 8.05144L8.19956 0.396208C8.45799 0.142516 8.80846 0 9.17389 0C9.53932 0 9.88979 0.142516 10.1482 0.396208Z" fill="#365486"/>
</svg>
