<svg width="258" height="220" viewBox="0 0 258 220" fill="none" xmlns="http://www.w3.org/2000/svg">
<path d="M115.977 229.337H-40.3349C-41.5595 229.335 -42.7331 228.847 -43.5982 227.98C-44.4633 227.114 -44.9492 225.939 -44.9492 224.714V4.98475C-44.9386 3.76724 -44.448 2.60311 -43.584 1.7452C-42.72 0.8873 -41.5525 0.404918 -40.3349 0.402832H115.977C117.202 0.402832 118.378 0.889833 119.245 1.7567C120.112 2.62357 120.599 3.79929 120.599 5.02523V224.714C120.599 225.94 120.112 227.116 119.245 227.983C118.378 228.85 117.202 229.337 115.977 229.337V229.337ZM-40.3349 0.564738C-41.5058 0.566882 -42.6279 1.03351 -43.4551 1.86219C-44.2823 2.69087 -44.7468 3.81389 -44.7468 4.98475V224.714C-44.7468 225.885 -44.2823 227.008 -43.4551 227.837C-42.6279 228.666 -41.5058 229.132 -40.3349 229.134H115.977C117.148 229.132 118.271 228.666 119.1 227.838C119.928 227.009 120.394 225.886 120.397 224.714V4.98475C120.394 3.81315 119.928 2.69014 119.1 1.86169C118.271 1.03324 117.148 0.566878 115.977 0.564738H-40.3349Z" fill="#EBEBEB"/>
<path d="M291.086 229.337H134.766C133.541 229.335 132.366 228.847 131.5 227.981C130.633 227.114 130.146 225.94 130.144 224.714V4.98475C130.156 3.76651 130.649 2.60238 131.514 1.7447C132.379 0.887017 133.548 0.404895 134.766 0.402832H291.086C292.302 0.407045 293.467 0.890369 294.329 1.74804C295.192 2.60572 295.681 3.76864 295.692 4.98475V224.714C295.692 225.938 295.207 227.111 294.344 227.977C293.48 228.844 292.309 229.333 291.086 229.337V229.337ZM134.766 0.564738C133.594 0.566878 132.471 1.03324 131.643 1.86169C130.814 2.69014 130.348 3.81315 130.346 4.98475V224.714C130.348 225.886 130.814 227.009 131.643 227.838C132.471 228.666 133.594 229.132 134.766 229.134H291.086C292.257 229.132 293.38 228.666 294.209 227.838C295.037 227.009 295.503 225.886 295.506 224.714V4.98475C295.503 3.81315 295.037 2.69014 294.209 1.86169C293.38 1.03324 292.257 0.566878 291.086 0.564738H134.766Z" fill="#EBEBEB"/>
<path d="M195.819 118.189H196.799V21.7987H195.819V118.189Z" fill="#EBEBEB"/>
<path opacity="0.3" d="M81.2398 108.458C81.2393 96.9758 77.9482 85.734 71.7561 76.0642C65.564 66.3944 56.7304 58.7017 46.3014 53.8972C35.8724 49.0927 24.285 47.3777 12.9114 48.9552C1.53782 50.5327 -9.14542 55.3367 -17.8731 62.7982C-26.6008 70.2598 -33.0073 80.0662 -36.3338 91.0563C-39.6604 102.046 -39.7677 113.759 -36.643 124.809C-33.5183 135.858 -27.2925 145.78 -18.7029 153.4C-10.1134 161.02 0.480085 166.019 11.8229 167.805C11.1693 168.289 10.6851 168.967 10.439 169.743C10.1929 170.518 10.1974 171.351 10.452 172.124C10.7066 172.897 11.1982 173.57 11.857 174.047C12.5159 174.524 13.3084 174.782 14.1219 174.783H15.741L10.3576 265.45H31.8829L26.4996 174.783H28.1672C28.9826 174.785 29.7778 174.529 30.4388 174.052C31.0999 173.575 31.5929 172.9 31.8473 172.126C32.1016 171.351 32.1042 170.516 31.8547 169.74C31.6051 168.963 31.1163 168.286 30.4582 167.805C44.6064 165.588 57.4974 158.39 66.8081 147.509C76.1188 136.628 81.2368 122.779 81.2398 108.458V108.458ZM21.1567 159.021C11.1547 159.02 1.37775 156.052 -6.93773 150.494C-15.2532 144.936 -21.7338 137.037 -25.5599 127.795C-29.386 118.554 -30.3859 108.386 -28.433 98.5763C-26.4802 88.7668 -21.6623 79.7566 -14.5887 72.6853C-7.51502 65.6139 1.49666 60.7989 11.3068 58.8492C21.117 56.8995 31.285 57.9026 40.525 61.7316C49.7651 65.5607 57.6622 72.0438 63.2177 80.3611C68.7731 88.6784 71.7375 98.4562 71.7359 108.458C71.7359 115.1 70.4275 121.676 67.8855 127.812C65.3434 133.947 61.6176 139.522 56.9206 144.217C52.2237 148.913 46.6478 152.637 40.5113 155.177C34.3749 157.717 27.7981 159.023 21.1567 159.021V159.021Z" fill="#E6E6E6"/>
<path d="M210.075 199.311C202.223 189.751 205.979 173.261 215.321 170.249C224.663 167.238 231.366 159.151 234.418 151.493C237.47 143.835 249.912 128.365 264.808 125.96C279.703 123.556 278.845 120.14 293.853 115.938C308.862 111.737 322.187 126.114 304.507 131.206C286.827 136.298 299.463 159.11 280.933 167.756C262.403 176.402 263.035 186.804 261.327 198.623C259.618 210.442 227.424 220.44 210.075 199.311Z" fill="#EBEBEB"/>
<path d="M208.578 230.138L207.769 229.936C218.592 188.86 243.339 161.353 262.185 145.51C282.601 128.348 300.71 120.796 300.896 120.723L301.204 121.467C301.018 121.54 283.006 129.061 262.679 146.15C243.954 161.919 219.345 189.281 208.578 230.138Z" fill="#FAFAFA"/>
<path d="M189.448 210.961C177.654 205.092 172.408 186.367 179.022 178.652C185.636 170.938 187.303 159.345 186.016 150.003C184.729 140.661 187.635 118.667 199.373 108.815C211.111 98.9627 208.634 95.8622 219.611 84.1402C230.589 72.4183 249.629 80.465 236.806 94.4455C223.983 108.426 246.828 125.467 235.098 143.519C223.368 161.571 229.301 171.852 233.916 184.805C238.53 197.757 215.548 223.937 189.448 210.961Z" fill="#6FCF97"/>
<path d="M200.369 228.827C189.845 198.737 196.419 163.255 203.802 138.791C211.897 111.899 223.789 89.7905 228.087 86.9814L228.533 87.6534C221.295 92.4296 181.272 171.844 201.146 228.576L200.369 228.827Z" fill="#FAFAFA"/>
<path d="M231.948 218.521H180.892L186.048 265.442H226.792L231.948 218.521Z" fill="#F5F5F5"/>
<path d="M58.3383 51.4354C67.7942 51.4354 75.4598 43.7698 75.4598 34.3139C75.4598 24.8579 67.7942 17.1924 58.3383 17.1924C48.8824 17.1924 41.2168 24.8579 41.2168 34.3139C41.2168 43.7698 48.8824 51.4354 58.3383 51.4354Z" fill="#263238"/>
<path d="M63.3019 63.4651C54.3971 61.4818 45.2657 61.2956 35.9885 62.1375C34.4357 62.2855 32.9664 62.9093 31.7812 63.9234C30.5961 64.9376 29.7528 66.2929 29.3665 67.8042C27.2537 76.3932 23.5865 95.7652 24.1694 125.281L61.61 125.888C62.379 120.626 61.7719 96.2266 68.0862 71.6008C68.3346 70.7522 68.4067 69.8617 68.2978 68.9841C68.189 68.1066 67.9016 67.2606 67.4534 66.4984C67.0051 65.7362 66.4055 65.0738 65.6915 64.5521C64.9776 64.0304 64.1643 63.6605 63.3019 63.4651Z" fill="#263238"/>
<path d="M40.7549 68.7429L41.7425 71.5358C41.7912 71.6718 41.8754 71.7924 41.9865 71.885C42.0975 71.9775 42.2313 72.0386 42.3739 72.062L43.7987 72.2805C44.0563 72.3177 44.3189 72.2663 44.5435 72.1348L47.2554 70.5158L44.4868 67.9819L40.7549 68.7429Z" fill="#828282"/>
<path d="M43.9288 71.4307C43.4043 71.2136 42.832 71.1382 42.2693 71.2121C40.6016 74.0859 37.8735 82.4888 37.1045 86.2369C39.3874 93.9112 40.4155 94.7531 40.4155 94.7531L43.7345 85.9455C43.7345 85.9455 43.2974 76.6683 43.9288 71.4307Z" fill="#828282"/>
<path d="M57.7978 44.7568C56.284 49.7921 54.3492 59.0854 57.5712 62.7688C54.5192 65.3188 50.5768 68.2412 44.4973 68.0064C38.4178 67.7717 39.8911 63.6674 41.7125 61.5869C47.5411 60.6478 47.8164 56.4059 47.2254 52.3583L57.7978 44.7568Z" fill="#FDCE98"/>
<path d="M59.1711 62.4692C58.7663 62.2407 58.3407 62.051 57.9002 61.9026C57.7913 61.8626 57.6724 61.8592 57.5614 61.8928C57.4504 61.9264 57.3534 61.9951 57.2849 62.0887C56.5726 63.0197 54.2168 67.2616 44.4863 68.0064C45.9273 69.0911 47.6354 72.1754 48.3559 73.6731C51.3997 72.475 59.3978 68.8159 59.4383 62.963C59.4413 62.8645 59.4182 62.7669 59.3713 62.6801C59.3243 62.5934 59.2553 62.5206 59.1711 62.4692V62.4692Z" fill="white"/>
<path d="M41.7357 61.8214C41.7658 61.7359 41.774 61.6441 41.7595 61.5546C41.745 61.4651 41.7083 61.3806 41.6527 61.3089C41.5972 61.2373 41.5245 61.1807 41.4414 61.1443C41.3584 61.108 41.2675 61.0931 41.1771 61.1009C40.8395 61.1338 40.5042 61.1879 40.1733 61.2628C40.0957 61.2833 40.0219 61.3161 39.9547 61.36C39.1452 61.9671 34.4176 67.31 37.5262 72.3371C38.5219 71.1633 41.5738 68.5567 44.4881 68.0062C41.9786 66.5247 40.9504 64.1366 41.7357 61.8214Z" fill="white"/>
<path opacity="0.2" d="M53.4901 47.8572L47.2324 52.3581C47.3875 53.3025 47.4552 54.259 47.4348 55.2158C49.6448 55.062 52.8667 52.8924 53.3282 50.6258C53.5466 49.7199 53.6015 48.7823 53.4901 47.8572V47.8572Z" fill="black"/>
<path d="M62.7487 38.3534C60.5144 45.0563 59.5106 49.0796 55.2282 51.8401C48.752 55.9849 41.2881 51.0791 41.5148 43.9553C41.7091 37.5358 45.3277 27.6433 52.6134 26.3562C59.8991 25.0691 64.9749 31.6424 62.7487 38.3534Z" fill="#FDCE98"/>
<path d="M60.1839 43.065L56.1929 41.4459C56.1929 41.4459 60.9691 36.2083 61.2443 33.035C53.8372 31.9016 43.5238 32.1202 47.7981 25.2068C50.68 20.5521 54.0638 20.5602 60.3215 22.6892C70.5863 26.1864 69.2263 35.1478 66.911 40.2559C64.5958 45.3641 60.1839 43.065 60.1839 43.065Z" fill="#263238"/>
<path d="M62.0312 43.0405C61.9799 43.039 61.931 43.0189 61.8936 42.9838C60.0192 41.2473 57.8176 39.9015 55.4173 39.0253C55.3648 39.0069 55.3217 38.9685 55.2975 38.9184C55.2732 38.8684 55.2697 38.8107 55.2878 38.7581C55.296 38.7324 55.3093 38.7086 55.3269 38.6881C55.3444 38.6676 55.3659 38.6509 55.3901 38.6388C55.4142 38.6267 55.4405 38.6196 55.4674 38.6179C55.4944 38.6161 55.5214 38.6198 55.5469 38.6286C58.0035 39.5247 60.2572 40.9006 62.1769 42.6762C62.2145 42.7154 62.2355 42.7676 62.2355 42.8219C62.2355 42.8763 62.2145 42.9285 62.1769 42.9677C62.1395 43.0098 62.0873 43.0359 62.0312 43.0405Z" fill="white"/>
<path d="M47.4261 44.9753C48.0444 45.1422 48.6895 45.1852 49.3244 45.1018C49.9593 45.0185 50.5715 44.8104 51.1257 44.4896C51.1602 44.4626 51.1846 44.4247 51.1949 44.382C51.2052 44.3394 51.2008 44.2946 51.1823 44.2548C51.1507 44.2246 51.1087 44.2078 51.0649 44.2078C51.0212 44.2078 50.9792 44.2246 50.9476 44.2548C50.3338 44.5963 49.6503 44.7936 48.949 44.8314C48.2476 44.8693 47.5469 44.7468 46.8999 44.4734C46.8579 44.4567 46.8111 44.4566 46.769 44.4731C46.7269 44.4896 46.6927 44.5216 46.6733 44.5624C46.6638 44.582 46.6584 44.6033 46.6574 44.625C46.6564 44.6468 46.6598 44.6685 46.6673 44.6889C46.6749 44.7093 46.6865 44.728 46.7014 44.7438C46.7163 44.7596 46.7343 44.7723 46.7542 44.781C46.9744 44.8582 47.1987 44.923 47.4261 44.9753V44.9753Z" fill="#263238"/>
<path d="M63.1294 46.2383C61.881 47.5083 60.1972 48.2576 58.418 48.3349C56.0946 48.3916 55.617 46.1897 56.7989 44.2873C57.8918 42.5873 60.4256 40.4987 62.4656 41.3406C64.5056 42.1825 64.6675 44.6597 63.1294 46.2383Z" fill="#FDCE98"/>
<path d="M44.0896 194.827C44.8991 159.588 53.7391 125.742 53.7391 125.742L24.499 125.272C24.499 125.272 26.2881 176.167 26.7981 197.49C27.3243 219.655 63.9634 269.991 63.9634 269.991L73.9935 263.361C73.9935 263.361 44.8748 222.642 44.0896 194.827Z" fill="#828282"/>
<g style="mix-blend-mode:multiply" opacity="0.2">
<path d="M46.786 145.13C38.1079 156.536 41.1841 177.989 44.1308 193.143C44.7879 176.386 46.7256 159.705 49.927 143.244L46.786 145.13Z" fill="black"/>
</g>
<path d="M52.4118 37.7219C52.258 38.2723 51.8533 38.6609 51.4971 38.58C51.1409 38.499 50.9709 37.9971 51.1166 37.4385C51.2623 36.88 51.6752 36.4995 52.0314 36.5804C52.3876 36.6614 52.5576 37.1714 52.4118 37.7219Z" fill="#263238"/>
<path d="M46.0837 36.548C45.938 37.0985 45.5251 37.4871 45.1689 37.4061C44.8127 37.3252 44.6508 36.8233 44.7965 36.2647C44.9423 35.7061 45.3551 35.3257 45.7113 35.4066C46.0675 35.4876 46.2375 36.0218 46.0837 36.548Z" fill="#263238"/>
<path d="M47.8164 37.1958C46.6826 38.5645 45.3765 39.7808 43.9307 40.8144C44.643 41.7696 46.3997 41.7049 46.3997 41.7049L47.8164 37.1958Z" fill="#630F0F"/>
<path d="M54.9944 36.1919C55.0494 36.211 55.1093 36.211 55.1644 36.1919C55.245 36.1561 55.3091 36.0911 55.3437 36.01C55.3782 35.9289 55.3807 35.8376 55.3506 35.7547C55.1651 35.2735 54.8619 34.8465 54.4687 34.5127C54.0756 34.179 53.605 33.9491 53.1001 33.8442C53.0116 33.8344 52.9227 33.858 52.8508 33.9104C52.7789 33.9629 52.7292 34.0403 52.7115 34.1276C52.7009 34.1697 52.6993 34.2137 52.7069 34.2565C52.7144 34.2994 52.731 34.3401 52.7555 34.3761C52.78 34.412 52.8118 34.4424 52.8489 34.4651C52.8859 34.4879 52.9274 34.5025 52.9706 34.508V34.508C53.3679 34.5927 53.7376 34.7756 54.0459 35.04C54.3542 35.3045 54.5912 35.6421 54.7353 36.0219C54.7582 36.0717 54.7946 36.1141 54.8404 36.1441C54.8862 36.1742 54.9396 36.1908 54.9944 36.1919V36.1919Z" fill="#263238"/>
<path d="M43.67 33.3506C43.7187 33.3761 43.7729 33.3894 43.8279 33.3894C43.8829 33.3894 43.937 33.3761 43.9857 33.3506C44.3272 33.091 44.7246 32.9148 45.1463 32.8361C45.568 32.7574 46.0022 32.7783 46.4143 32.8972C46.4993 32.9272 46.5926 32.9238 46.6752 32.8878C46.7578 32.8517 46.8237 32.7857 46.8596 32.7029C46.8766 32.6637 46.8854 32.6215 46.8856 32.5787C46.8858 32.536 46.8773 32.4937 46.8607 32.4543C46.844 32.415 46.8195 32.3794 46.7887 32.3498C46.7579 32.3201 46.7214 32.2971 46.6815 32.282C46.1702 32.1276 45.6299 32.0955 45.104 32.1883C44.5781 32.2811 44.0813 32.4962 43.6538 32.8163C43.617 32.84 43.5852 32.8709 43.5604 32.907C43.5355 32.9431 43.5181 32.9838 43.5091 33.0267C43.5 33.0696 43.4996 33.1139 43.5078 33.157C43.5159 33.2001 43.5326 33.2411 43.5567 33.2777C43.5871 33.3119 43.6263 33.3371 43.67 33.3506V33.3506Z" fill="#263238"/>
<path d="M64.1662 194.341C63.7615 162.77 65.7853 138.152 61.6405 125.871L36.9014 125.475C36.9014 125.475 45.5957 174.702 48.0485 195.863C50.5905 217.858 54.7757 269.627 54.7757 269.627L66.0686 269.781C66.0686 269.781 68.7805 218.975 64.1662 194.341Z" fill="#828282"/>
<path d="M58.0961 62.5097C54.008 67.6178 43.2656 74.6526 40.4242 86.925C37.3318 74.7011 41.5089 61.5868 41.5089 61.5868C39.2261 61.4168 34.4903 61.2063 31.1632 62.1373C30.1023 62.4429 29.1447 63.0316 28.3931 63.8403C27.6415 64.6489 27.1243 65.647 26.897 66.7273C24.2385 80.0885 22.8937 93.6777 22.8817 107.301C22.817 133.003 20.7041 172.783 20.7041 172.783C20.7041 172.783 46.7385 174.305 67.2681 172.095C67.3571 152.448 63.269 119.096 64.3295 110.377C65.6976 99.165 68.8143 77.2754 70.3604 68.1683C70.5997 66.9028 70.3659 65.5935 69.7032 64.4891C69.0406 63.3847 67.9954 62.5622 66.7662 62.1778C64.3865 61.5758 61.9143 61.4302 59.4804 61.7487C58.9369 61.8105 58.4396 62.0839 58.0961 62.5097V62.5097Z" fill="#828282"/>
<path opacity="0.7" d="M58.088 62.5097C53.9999 67.6259 43.2575 74.6526 40.4242 86.925C37.3318 74.7011 41.5089 61.5868 41.5089 61.5868C39.2261 61.4168 34.4903 61.2063 31.1632 62.1373C30.1023 62.4429 29.1447 63.0316 28.3931 63.8403C27.6415 64.6489 27.1243 65.647 26.897 66.7273C24.2385 80.0885 22.8937 93.6777 22.8817 107.301C22.817 133.003 20.7041 172.783 20.7041 172.783C20.7041 172.783 46.7385 174.305 67.2681 172.095C67.3571 152.448 63.269 119.096 64.3295 110.377C65.6976 99.1569 68.8142 77.2673 70.3604 68.1683C70.6087 66.9436 70.4052 65.6705 69.7877 64.5842C69.1701 63.4979 68.1802 62.6718 67.0009 62.2587C64.5531 61.6054 62.0015 61.4349 59.4885 61.7568C58.9407 61.8133 58.4373 62.0839 58.088 62.5097Z" fill="white"/>
<path opacity="0.5" d="M39.0708 170.403C37.8403 145.405 39.686 93.0856 39.9855 88.4065H40.4227C40.1232 93.0775 38.2774 145.365 39.5079 170.355L39.0708 170.403Z" fill="#828282"/>
<path d="M38.3673 70.8318C35.7849 75.3489 33.3077 80.1251 31.0815 84.8447C29.9644 87.2166 28.9201 89.5966 28.0215 91.9523C27.5682 93.1261 27.1634 94.2919 26.8153 95.409C26.5043 96.3709 26.2715 97.3563 26.1191 98.3557V98.4204C26.1294 98.3046 26.1294 98.1881 26.1191 98.0723C26.1073 97.8004 26.0748 97.5298 26.022 97.2628C25.9526 96.9859 25.8606 96.7151 25.7468 96.4533C25.639 96.2216 25.5117 95.9996 25.3663 95.7895C25.0975 95.3846 24.737 95.049 24.3139 94.81C24.0548 94.6966 24.3787 94.8585 24.751 94.9233C25.7835 95.1309 26.8314 95.2527 27.8839 95.2876C30.3984 95.3919 32.9166 95.3676 35.4287 95.2147C38.0111 95.0528 40.6339 94.8181 43.2487 94.5347C44.5602 94.389 45.8716 94.219 47.1749 94.0409L49.134 93.7738L50.1054 93.6199L50.5911 93.5471L50.8259 93.5066H50.9473H51.0202H50.8987L50.664 93.5552L53.0116 104.346L52.7445 104.395H52.5906H52.4854H52.3478H52.0807L51.5625 104.451L50.5264 104.565L48.4621 104.783L44.3416 105.18C41.5811 105.439 38.8206 105.658 36.0116 105.795C33.2025 105.933 30.3449 106.062 27.3658 105.933C25.7181 105.881 24.0773 105.694 22.4601 105.374C21.2813 105.141 20.1418 104.74 19.0763 104.184C18.0486 103.64 17.1618 102.864 16.4858 101.918C15.9701 101.189 15.6092 100.362 15.4253 99.489C15.3245 99.0481 15.2729 98.5975 15.2715 98.1452C15.2715 97.9509 15.2715 97.6595 15.2715 97.5381V97.36C15.4418 95.6635 15.7669 93.9862 16.2429 92.349C16.6558 90.8757 17.1091 89.4833 17.5867 88.1233C18.5582 85.4114 19.5944 82.8128 20.6629 80.2385C21.7315 77.6642 22.8648 75.1466 23.9982 72.637C25.1315 70.1275 26.2972 67.6584 27.5115 65.1003L38.3673 70.8318Z" fill="#828282"/>
<g opacity="0.7">
<path opacity="0.7" d="M38.3673 70.8318C35.7849 75.3489 33.3077 80.1251 31.0815 84.8447C29.9644 87.2166 28.9201 89.5966 28.0215 91.9523C27.5682 93.1261 27.1634 94.2919 26.8153 95.409C26.5043 96.3709 26.2715 97.3563 26.1191 98.3557V98.4204C26.1294 98.3046 26.1294 98.1881 26.1191 98.0723C26.1073 97.8004 26.0748 97.5298 26.022 97.2628C25.9526 96.9859 25.8606 96.7151 25.7468 96.4533C25.639 96.2216 25.5117 95.9996 25.3663 95.7895C25.0975 95.3846 24.737 95.049 24.3139 94.81C24.0548 94.6966 24.3787 94.8585 24.751 94.9233C25.7835 95.1309 26.8314 95.2527 27.8839 95.2876C30.3984 95.3919 32.9166 95.3676 35.4287 95.2147C38.0111 95.0528 40.6339 94.8181 43.2487 94.5347C44.5602 94.389 45.8716 94.219 47.1749 94.0409L49.134 93.7738L50.1054 93.6199L50.5911 93.5471L50.8259 93.5066H50.9473H51.0202H50.8987L50.664 93.5552L53.0116 104.346L52.7445 104.395H52.5906H52.4854H52.3478H52.0807L51.5625 104.451L50.5264 104.565L48.4621 104.783L44.3416 105.18C41.5811 105.439 38.8206 105.658 36.0116 105.795C33.2025 105.933 30.3449 106.062 27.3658 105.933C25.7181 105.881 24.0773 105.694 22.4601 105.374C21.2813 105.141 20.1418 104.74 19.0763 104.184C18.0486 103.64 17.1618 102.864 16.4858 101.918C15.9701 101.189 15.6092 100.362 15.4253 99.489C15.3245 99.0481 15.2729 98.5975 15.2715 98.1452C15.2715 97.9509 15.2715 97.6595 15.2715 97.5381V97.36C15.4418 95.6635 15.7669 93.9862 16.2429 92.349C16.6558 90.8757 17.1091 89.4833 17.5867 88.1233C18.5582 85.4114 19.5944 82.8128 20.6629 80.2385C21.7315 77.6642 22.8648 75.1466 23.9982 72.637C25.1315 70.1275 26.2972 67.6584 27.5115 65.1003L38.3673 70.8318Z" fill="white"/>
</g>
<path d="M31.0729 94.5832L25.7867 89.5317L22.1924 97.0441C22.1924 97.0441 27.4867 101.092 29.8829 98.6632L31.0729 94.5832Z" fill="#FDCE98"/>
<path d="M50.4043 97.1573L55.2615 91.6768L59.4548 98.8815C59.4548 98.8815 54.5167 103.334 51.9424 101.148L50.4043 97.1573Z" fill="#FDCE98"/>
<path d="M62.5479 91.0213L63.5841 93.8303C63.7812 94.3907 63.7829 95.0013 63.5889 95.5628C63.3949 96.1243 63.0166 96.6036 62.5155 96.9227L59.4717 98.8818L55.2783 91.677L59.3745 89.7665C59.6625 89.6225 59.9776 89.5408 60.2993 89.5268C60.621 89.5128 60.942 89.5668 61.2414 89.6852C61.5409 89.8036 61.812 89.9837 62.0371 90.214C62.2622 90.4442 62.4362 90.7193 62.5479 91.0213Z" fill="#FDCE98"/>
<path d="M18.4786 89.4506L17.6691 92.3244C17.5211 92.8991 17.5717 93.5069 17.8127 94.0492C18.0537 94.5915 18.471 95.0364 18.9967 95.3116L22.2348 97.0197L25.8291 89.5073L21.5791 87.9368C21.2779 87.81 20.9531 87.7491 20.6264 87.7582C20.2997 87.7673 19.9788 87.8462 19.6851 87.9896C19.3914 88.133 19.1318 88.3375 18.9237 88.5895C18.7157 88.8415 18.5639 89.1351 18.4786 89.4506V89.4506Z" fill="#FDCE98"/>
<path d="M70.3688 66.9946C70.6602 68.5651 70.8869 69.9656 71.1217 71.447C71.3564 72.9285 71.5588 74.3775 71.7369 75.8509C72.1174 78.7975 72.4331 81.7604 72.5869 84.8123C72.7871 87.9965 72.7194 91.1919 72.3845 94.3647C72.1747 96.3114 71.6923 98.219 70.9517 100.031C70.7202 100.589 70.4497 101.13 70.1421 101.65C69.9479 101.942 69.7779 102.217 69.5431 102.517L69.3731 102.735C69.3066 102.829 69.2335 102.919 69.1545 103.002C68.9309 103.261 68.6902 103.504 68.434 103.731C67.7109 104.35 66.8903 104.845 66.0055 105.196C65.4213 105.434 64.8207 105.628 64.2083 105.779C62.4446 106.167 60.6467 106.378 58.8412 106.41C57.2221 106.459 55.6921 106.41 54.1783 106.362C51.1507 106.24 48.2202 105.949 45.2735 105.658C42.3268 105.366 39.4773 104.994 36.6035 104.589C33.7296 104.184 30.8963 103.78 27.9658 103.318L29.9654 92.4542C32.6287 93.0047 35.4216 93.4742 38.1659 93.9195C40.9102 94.3647 43.6787 94.729 46.423 95.0285C49.1673 95.3281 51.9035 95.5466 54.5669 95.66C55.8864 95.7004 57.1978 95.7166 58.4283 95.66C59.4682 95.6418 60.5039 95.5225 61.5207 95.3038C61.6502 95.3038 61.7878 95.2147 61.7474 95.2147C61.5402 95.312 61.3491 95.4403 61.1807 95.5952C61.0547 95.7009 60.9383 95.8174 60.8326 95.9433C60.7597 96.0404 60.8326 95.9919 60.7759 96.0081C60.7759 96.0081 60.8326 95.8866 60.8812 95.749C61.1649 94.8944 61.3417 94.008 61.4074 93.11C61.599 90.6156 61.5584 88.1087 61.2859 85.6218C61.035 82.9909 60.6464 80.3113 60.1688 77.6318C59.9178 76.2961 59.6426 74.9604 59.3593 73.6247C59.0759 72.2889 58.744 70.9208 58.4202 69.7146L70.3688 66.9946Z" fill="#828282"/>
<g opacity="0.7">
<path opacity="0.7" d="M70.3688 66.9946C70.6602 68.5651 70.8869 69.9656 71.1217 71.447C71.3564 72.9285 71.5588 74.3775 71.7369 75.8509C72.1174 78.7975 72.4331 81.7604 72.5869 84.8123C72.7871 87.9965 72.7194 91.1919 72.3845 94.3647C72.1747 96.3114 71.6923 98.219 70.9517 100.031C70.7202 100.589 70.4497 101.13 70.1421 101.65C69.9479 101.942 69.7779 102.217 69.5431 102.517L69.3731 102.735C69.3066 102.829 69.2335 102.919 69.1545 103.002C68.9309 103.261 68.6902 103.504 68.434 103.731C67.7109 104.35 66.8903 104.845 66.0055 105.196C65.4213 105.434 64.8207 105.628 64.2083 105.779C62.4446 106.167 60.6467 106.378 58.8412 106.41C57.2221 106.459 55.6921 106.41 54.1783 106.362C51.1507 106.24 48.2202 105.949 45.2735 105.658C42.3268 105.366 39.4773 104.994 36.6035 104.589C33.7296 104.184 30.8963 103.78 27.9658 103.318L29.9654 92.4542C32.6287 93.0047 35.4216 93.4742 38.1659 93.9195C40.9102 94.3647 43.6787 94.729 46.423 95.0285C49.1673 95.3281 51.9035 95.5466 54.5669 95.66C55.8864 95.7004 57.1978 95.7166 58.4283 95.66C59.4682 95.6418 60.5039 95.5225 61.5207 95.3038C61.6502 95.3038 61.7878 95.2147 61.7474 95.2147C61.5402 95.312 61.3491 95.4403 61.1807 95.5952C61.0547 95.7009 60.9383 95.8174 60.8326 95.9433C60.7597 96.0404 60.8326 95.9919 60.7759 96.0081C60.7759 96.0081 60.8326 95.8866 60.8812 95.749C61.1649 94.8944 61.3417 94.008 61.4074 93.11C61.599 90.6156 61.5584 88.1087 61.2859 85.6218C61.035 82.9909 60.6464 80.3113 60.1688 77.6318C59.9178 76.2961 59.6426 74.9604 59.3593 73.6247C59.0759 72.2889 58.744 70.9208 58.4202 69.7146L70.3688 66.9946Z" fill="white"/>
</g>
<path d="M52.0735 124.787L64.2164 133.635C64.2164 133.635 65.5926 145.519 58.7683 146.684C51.944 147.85 50.6002 133.351 52.0735 124.787Z" fill="#828282"/>
<path opacity="0.5" d="M52.0735 124.787L64.2164 133.635C64.2164 133.635 65.5926 145.519 58.7683 146.684C51.944 147.85 50.6002 133.351 52.0735 124.787Z" fill="white"/>
<path d="M25.7952 124.787L21.3509 133.635C21.3509 133.635 19.9342 145.519 21.9256 146.684C23.9171 147.85 25.528 133.351 25.7952 124.787Z" fill="#828282"/>
<path opacity="0.5" d="M25.7952 124.787L21.3509 133.635C21.3509 133.635 19.9342 145.519 21.9256 146.684C23.9171 147.85 25.528 133.351 25.7952 124.787Z" fill="white"/>
<path d="M43.1196 40.4499C42.9725 40.4497 42.826 40.4334 42.6825 40.4013C42.3998 40.3312 42.1353 40.2018 41.9065 40.0218C41.6776 39.8417 41.4896 39.6151 41.3548 39.357C41.0505 38.6799 40.8837 37.949 40.8642 37.2069C40.8448 36.4648 40.973 35.7262 41.2415 35.0341C42.051 32.4517 44.0667 30.6546 45.6858 30.9865C45.9678 31.058 46.2317 31.188 46.4604 31.3678C46.689 31.5477 46.8775 31.7736 47.0134 32.0308C47.3178 32.7079 47.4846 33.4387 47.504 34.1808C47.5235 34.923 47.3952 35.6615 47.1268 36.3537C46.3577 38.7499 44.6415 40.4499 43.1196 40.4499ZM45.2406 31.1646C43.8077 31.1646 42.1644 32.7836 41.4358 35.0746C40.9019 36.4231 40.9252 37.9285 41.5006 39.2599C41.6219 39.4935 41.7915 39.6987 41.998 39.8619C42.2045 40.0252 42.4433 40.1428 42.6986 40.207C44.2206 40.5632 46.0987 38.8227 46.9001 36.3456C47.4127 34.9985 47.3749 33.504 46.7948 32.1846C46.676 31.9506 46.5083 31.7449 46.3029 31.5815C46.0976 31.4181 45.8595 31.3007 45.6049 31.2374C45.4866 31.1993 45.3644 31.1748 45.2406 31.1646Z" fill="white"/>
<path d="M51.7401 42.3119C51.5361 42.3104 51.3327 42.2887 51.1329 42.2471C50.6407 42.1139 50.1869 41.8662 49.8085 41.5244C49.4301 41.1826 49.1378 40.7562 48.9553 40.28C48.4896 39.1485 48.396 37.8982 48.6882 36.71C49.2791 34.1033 51.3434 32.3466 53.2863 32.7838C53.7785 32.917 54.2323 33.1647 54.6107 33.5065C54.9891 33.8483 55.2815 34.2747 55.4639 34.7509C55.9257 35.8805 56.0192 37.127 55.7311 38.3128C55.1968 40.6524 53.4806 42.3119 51.7401 42.3119ZM52.6791 32.9214C51.0601 32.9214 49.4006 34.5404 48.8906 36.7585C48.6097 37.9032 48.6975 39.1073 49.1415 40.199C49.3099 40.647 49.5829 41.0481 49.9378 41.3692C50.2926 41.6903 50.719 41.9219 51.1815 42.0447C53.003 42.4657 54.9539 40.7657 55.5287 38.2724C55.8096 37.1277 55.7217 35.9236 55.2777 34.8319C55.1082 34.3846 54.8348 33.9841 54.4801 33.6632C54.1255 33.3423 53.6996 33.1102 53.2377 32.9861C53.0544 32.9447 52.8671 32.923 52.6791 32.9214V32.9214Z" fill="white"/>
<path d="M48.6476 37.9323C48.5971 37.9346 48.5478 37.9171 48.5099 37.8837C48.2847 37.6658 48.014 37.5005 47.7172 37.3997C47.4205 37.2989 47.1051 37.2651 46.7937 37.3008C46.7401 37.3116 46.6843 37.3005 46.6388 37.2702C46.5932 37.2398 46.5616 37.1926 46.5509 37.1389C46.5402 37.0852 46.5512 37.0295 46.5815 36.984C46.6119 36.9384 46.6591 36.9068 46.7128 36.8961C47.0858 36.8474 47.465 36.8833 47.8224 37.001C48.1797 37.1187 48.506 37.3152 48.7771 37.5761C48.7967 37.5949 48.8122 37.6176 48.8229 37.6426C48.8335 37.6676 48.839 37.6946 48.839 37.7218C48.839 37.749 48.8335 37.7759 48.8229 37.8009C48.8122 37.826 48.7967 37.8486 48.7771 37.8675C48.7425 37.9032 48.6968 37.926 48.6476 37.9323V37.9323Z" fill="white"/>
<path d="M50.915 90.2604L50.4698 89.2647C57.3669 86.2208 61.9003 80.0684 61.196 76.806C60.8236 75.0817 59.0103 74.7175 57.5288 74.7417C50.4131 74.8065 48.0331 81.8494 46.1145 87.5161C45.8716 88.2446 45.6288 88.9408 45.394 89.5885L44.374 89.2161C44.6007 88.5766 44.8354 87.8884 45.0864 87.168C47.005 81.5013 49.6359 73.7217 57.5207 73.657H57.6098C61.1069 73.657 62.0298 75.4784 62.2645 76.5713C63.066 80.2789 58.3869 86.9251 50.915 90.2604Z" fill="#263238"/>
<path d="M49.2066 89.0539C48.6561 90.252 48.8828 91.5229 49.7004 91.8953C50.518 92.2677 51.6351 91.6039 52.1775 90.4058C52.7199 89.2077 52.5013 87.9367 51.6837 87.5644C50.8661 87.192 49.7489 87.8315 49.2066 89.0539Z" fill="#263238"/>
<path d="M43.0474 89.0539C42.4969 90.252 42.7236 91.5229 43.5412 91.8953C44.3588 92.2677 45.476 91.6039 46.0183 90.4058C46.5607 89.2077 46.3502 87.9367 45.5245 87.5644C44.6988 87.192 43.5979 87.8315 43.0474 89.0539Z" fill="#263238"/>
<path d="M32.8007 77.1866C32.9429 75.6731 31.8602 74.3337 30.3824 74.1947C28.9046 74.0558 27.5913 75.1701 27.449 76.6835C27.3067 78.1969 28.3894 79.5364 29.8672 79.6754C31.3451 79.8143 32.6584 78.7 32.8007 77.1866Z" fill="#263238"/>
<path d="M58.0556 74.7336C57.9913 74.745 57.9256 74.745 57.8613 74.7336C57.7941 74.7085 57.7325 74.6703 57.6801 74.6211C57.6278 74.572 57.5857 74.513 57.5563 74.4475C57.5269 74.382 57.5109 74.3112 57.509 74.2395C57.5072 74.1677 57.5196 74.0963 57.5456 74.0294C57.5456 73.9889 59.2699 69.3179 56.558 62.3155C56.532 62.2491 56.5192 62.1781 56.5206 62.1068C56.522 62.0354 56.5374 61.965 56.5659 61.8996C56.5945 61.8342 56.6357 61.7751 56.6871 61.7256C56.7385 61.6761 56.7992 61.6373 56.8656 61.6112C56.9321 61.5852 57.003 61.5725 57.0743 61.5738C57.1457 61.5752 57.2161 61.5906 57.2815 61.6192C57.3469 61.6477 57.406 61.6889 57.4555 61.7403C57.505 61.7917 57.5439 61.8524 57.5699 61.9188C60.4518 69.3422 58.6385 74.2155 58.5575 74.4179C58.5144 74.5142 58.4437 74.5956 58.3544 74.6518C58.2651 74.708 58.1611 74.7365 58.0556 74.7336Z" fill="#263238"/>
<path d="M29.0733 76.6521H28.96C28.8199 76.6191 28.698 76.5334 28.6195 76.4128C28.5411 76.2921 28.5123 76.1459 28.539 76.0045C28.6443 75.4945 31.2752 63.4406 41.3862 61.0606C41.5269 61.0284 41.6745 61.0534 41.7967 61.13C41.9189 61.2067 42.0057 61.3288 42.0379 61.4694C42.0701 61.61 42.0451 61.7577 41.9685 61.8799C41.8918 62.0021 41.7697 62.0889 41.6291 62.1211C32.1981 64.3473 29.6319 76.1097 29.6076 76.223C29.5802 76.3444 29.5124 76.4529 29.4154 76.5308C29.3183 76.6087 29.1978 76.6515 29.0733 76.6521Z" fill="#263238"/>
<path d="M141.405 53.4912C131.852 51.3865 122.154 51.1841 112.31 52.0827C110.675 52.2338 109.13 52.8999 107.898 53.9852C106.666 55.0705 105.81 56.5189 105.454 58.1217C103.478 67.2532 100.2 87.8475 101.754 119.217L141.599 119.864C142.247 114.262 140.789 88.2928 146.788 62.1289C147.011 61.2079 147.048 60.2517 146.897 59.3163C146.746 58.3808 146.41 57.4848 145.908 56.6807C145.407 55.8765 144.751 55.1803 143.978 54.6327C143.204 54.0851 142.33 53.697 141.405 53.4912Z" fill="#1987FB"/>
<path d="M117.596 59.1014L118.729 62.0804C118.786 62.2261 118.881 62.3543 119.003 62.4523C119.125 62.5502 119.271 62.6146 119.425 62.639L120.939 62.8657C121.219 62.917 121.507 62.8621 121.749 62.7119L124.574 61.0199L121.562 58.3242L117.596 59.1014Z" fill="#263238"/>
<path d="M121.076 61.967C120.518 61.736 119.91 61.6551 119.311 61.7322C117.619 64.7922 114.988 73.7294 114.292 77.7123C116.963 85.8723 118.089 86.7628 118.089 86.7628L121.327 77.4047C121.327 77.4047 120.55 67.5365 121.076 61.967Z" fill="#263238"/>
<path d="M134.952 33.5933C133.503 38.9523 131.714 48.8366 135.284 52.7467C132.127 55.4586 127.999 58.5672 121.522 58.3162C115.046 58.0652 116.487 53.7019 118.357 51.4838C124.526 50.4881 124.688 45.979 123.927 41.6804L134.952 33.5933Z" fill="#FF8B7B"/>
<path d="M137.024 52.4387C136.585 52.1925 136.125 51.9892 135.647 51.8315C135.533 51.79 135.408 51.7865 135.291 51.8215C135.175 51.8565 135.073 51.9281 135 52.0258C134.271 53.0215 131.907 57.5306 121.586 58.3239C123.148 59.4735 125.059 62.7601 125.876 64.3225C129.074 63.0516 137.461 59.1254 137.315 52.9406C137.314 52.8389 137.286 52.7393 137.235 52.6514C137.184 52.5635 137.111 52.4902 137.024 52.4387V52.4387Z" fill="white"/>
<path d="M118.406 51.7509C118.444 51.6559 118.457 51.5524 118.444 51.4507C118.43 51.349 118.391 51.2526 118.329 51.1709C118.267 51.0892 118.184 51.0251 118.09 50.9848C117.996 50.9446 117.892 50.9296 117.79 50.9414C117.434 50.9758 117.079 51.0326 116.73 51.1114C116.649 51.1332 116.572 51.1688 116.503 51.2166C115.694 51.8562 110.837 57.5471 114.269 62.89C115.289 61.6433 118.43 58.8424 121.555 58.2838C118.818 56.7457 117.653 54.2119 118.406 51.7509Z" fill="white"/>
<path opacity="0.2" d="M130.467 36.896L123.991 41.6803C124.184 42.681 124.287 43.697 124.299 44.716C126.638 44.5541 129.966 42.2874 130.419 39.8589C130.619 38.8828 130.636 37.8781 130.467 36.896V36.896Z" fill="black"/>
<path d="M121.699 30.3549C117.911 31.5854 117.328 28.5982 118.105 25.6597C118.583 23.8301 117.919 22.6644 117.66 20.6568C117.215 17.362 118.04 14.4477 124.185 12.3106C132.15 9.53389 130.394 14.2129 130.709 16.1477C131.025 18.0825 127.714 19.2482 127.876 21.2396C128.008 23.2297 127.472 25.2068 126.353 26.8578C125.234 28.5088 123.596 29.7395 121.699 30.3549V30.3549Z" fill="#263238"/>
<path d="M140.02 26.7848C137.858 33.9168 136.951 38.1992 132.442 41.1296C125.691 45.5416 117.596 40.3282 117.596 32.7834C117.596 25.9591 121.133 15.4353 128.832 14.0672C130.511 13.75 132.245 13.8757 133.861 14.4317C135.477 14.9877 136.921 15.9549 138.049 17.2382C139.178 18.5215 139.954 20.0767 140.299 21.7506C140.645 23.4245 140.548 25.1595 140.02 26.7848V26.7848Z" fill="#FF8B7B"/>
<path d="M137.834 19.4101C133.989 18.7301 129.439 20.3654 125.602 19.4101C122.558 18.6006 122.591 16.6011 123.036 14.553C123.692 11.5335 126.201 10.5458 127.707 9.98725C129.213 9.42868 129.99 11.3068 132.07 9.87392C133.471 8.90249 138.813 8.65963 141.979 9.87392C145.144 11.0882 141.525 13.3792 143.217 14.4396C148.447 17.6778 145.12 20.6973 137.834 19.4101Z" fill="#263238"/>
<path opacity="0.3" d="M125.804 18.5846C124.444 15.4841 125.877 11.3393 131.592 10.9426C126.581 12.4483 125.804 18.5846 125.804 18.5846Z" fill="white"/>
<path d="M136.758 34.006C133.52 33.496 133.707 29.8369 135.285 27.3031C136.791 24.8745 134.573 22.2516 134.411 20.414C134.249 18.5764 135.965 16.7064 139.268 16.8602C142.571 17.014 147.817 19.1107 147.906 21.5312C147.995 23.9517 144.611 23.6521 145.137 25.9917C146.295 31.205 141.478 34.7588 136.758 34.006Z" fill="#263238"/>
<path opacity="0.3" d="M143.5 21.3694C142.132 23.798 139.291 24.3242 135.607 21.3694C136.852 21.914 138.196 22.1951 139.554 22.1951C140.912 22.1951 142.256 21.914 143.5 21.3694V21.3694Z" fill="white"/>
<path d="M119.037 32.5649C117.555 34.1272 117.685 37.2682 117.766 38.7739C117.847 40.2796 119.126 42.7568 123.861 43.4692C128.597 44.1816 129.706 42.5058 129.933 40.9192C130.159 39.3325 129.933 34.8234 128.403 33.3177C126.873 31.812 120.712 30.792 119.037 32.5649Z" fill="#263238"/>
<path d="M122.121 34.8479C122.775 35.0279 123.459 35.0748 124.132 34.9858C124.805 34.8968 125.454 34.6738 126.039 34.3298C126.069 34.3008 126.087 34.2622 126.092 34.2209C126.096 34.1795 126.086 34.1379 126.063 34.1032C126.04 34.0686 126.005 34.0432 125.965 34.0313C125.926 34.0194 125.883 34.0219 125.845 34.0383C125.191 34.4091 124.461 34.6232 123.711 34.664C122.961 34.7047 122.211 34.5709 121.522 34.2731C121.479 34.2539 121.43 34.2525 121.386 34.2692C121.342 34.2859 121.306 34.3193 121.287 34.3622C121.268 34.4051 121.266 34.4539 121.283 34.4979C121.3 34.5419 121.333 34.5775 121.376 34.5969C121.619 34.6962 121.867 34.78 122.121 34.8479V34.8479Z" fill="#FF8B7B"/>
<path d="M140.675 35.2123C139.377 36.5666 137.603 37.3623 135.729 37.4304C133.3 37.5032 132.685 35.1556 133.915 33.1399C135.032 31.3266 137.655 29.0923 139.865 30.007C142.075 30.9218 142.261 33.4961 140.675 35.2123Z" fill="#FF8B7B"/>
<path d="M122.348 193.199C123.32 155.718 132.872 119.727 132.872 119.727L101.811 119.225C101.811 119.225 103.543 173.35 104.012 196.025C104.506 219.598 111.873 274.945 111.873 274.945L124.485 275.14C124.485 275.14 123.085 222.771 122.348 193.199Z" fill="#263238"/>
<path opacity="0.2" d="M125.375 140.345C116.106 152.488 119.32 175.284 122.396 191.402C123.068 171.366 126.096 151.913 128.727 138.338L125.375 140.345Z" fill="black"/>
<path d="M129.002 26.1131C128.856 26.704 128.435 27.1169 128.055 27.036C127.674 26.955 127.472 26.4126 127.618 25.8217C127.763 25.2307 128.176 24.8179 128.557 24.8988C128.937 24.9798 129.14 25.4979 129.002 26.1131Z" fill="#263238"/>
<path d="M122.234 24.8664C122.096 25.4574 121.676 25.8621 121.287 25.7812C120.898 25.7002 120.712 25.1579 120.85 24.5669C120.987 23.976 121.416 23.5712 121.797 23.6521C122.177 23.7331 122.372 24.2755 122.234 24.8664Z" fill="#263238"/>
<path d="M124.072 25.7976C122.899 27.2526 121.538 28.5456 120.024 29.6429C120.834 30.6629 122.68 30.59 122.68 30.59L124.072 25.7976Z" fill="#FF5652"/>
<path d="M131.884 23.7575C131.942 23.7722 132.004 23.7722 132.062 23.7575C132.148 23.7186 132.215 23.6474 132.248 23.5594C132.281 23.4715 132.278 23.3739 132.24 23.288C132.031 22.778 131.701 22.327 131.277 21.9742C130.854 21.6214 130.351 21.3776 129.812 21.2641C129.718 21.2502 129.623 21.274 129.547 21.3301C129.471 21.3863 129.421 21.4703 129.407 21.5637C129.399 21.6084 129.4 21.6543 129.41 21.6986C129.42 21.743 129.438 21.7849 129.465 21.8218C129.491 21.8588 129.525 21.8901 129.563 21.9139C129.602 21.9377 129.645 21.9535 129.69 21.9603V21.9603C130.118 22.0544 130.517 22.2509 130.853 22.5328C131.188 22.8148 131.45 23.1739 131.617 23.5794C131.644 23.6283 131.682 23.6701 131.729 23.7011C131.775 23.7321 131.828 23.7514 131.884 23.7575Z" fill="#263238"/>
<path d="M120.332 21.6444C120.39 21.6549 120.45 21.6516 120.506 21.6347C120.562 21.6178 120.614 21.5879 120.656 21.5473C120.961 21.2166 121.34 20.9638 121.763 20.8103C122.186 20.6567 122.639 20.6069 123.085 20.6649C123.178 20.6796 123.273 20.6586 123.351 20.606C123.429 20.5535 123.484 20.4733 123.506 20.3816C123.525 20.2914 123.508 20.1973 123.458 20.1199C123.407 20.0425 123.329 19.9881 123.239 19.9687C122.68 19.8951 122.112 19.9542 121.58 20.1413C121.048 20.3283 120.568 20.6381 120.179 21.0454C120.112 21.1121 120.075 21.2023 120.075 21.2963C120.075 21.3904 120.112 21.4806 120.179 21.5473C120.221 21.5914 120.274 21.6247 120.332 21.6444V21.6444Z" fill="#263238"/>
<path d="M148.358 192.26C145.265 158.762 146.423 132.914 141.598 119.864L115.272 119.443C115.272 119.443 126.978 172.403 131.366 194.729C135.915 217.93 144.197 272.751 144.197 272.751L156.21 272.921C156.21 272.921 155.368 218.165 148.358 192.26Z" fill="#263238"/>
<path d="M87.5221 122.787L83.1992 129.117L91.7559 131.732C91.7559 131.732 94.994 125.547 92.0474 123.402L87.5221 122.787Z" fill="#FF8B7B"/>
<path d="M84.5017 136.808L87.675 137.212C88.2967 137.284 88.924 137.139 89.4508 136.801C89.9775 136.463 90.3712 135.954 90.565 135.359L91.7551 131.732L83.1984 129.117L82.3888 133.829C82.3239 134.164 82.3277 134.509 82.3998 134.842C82.4719 135.176 82.6108 135.491 82.8083 135.77C83.0058 136.048 83.2577 136.284 83.5487 136.462C83.8398 136.641 84.164 136.758 84.5017 136.808V136.808Z" fill="#FF8B7B"/>
<path d="M115.603 60.866C113.984 66.3708 112.398 71.8945 110.843 77.437C109.289 82.958 107.824 88.5356 106.415 94.0161C106.14 95.198 105.606 97.2542 105.112 98.5819C104.618 99.9095 104.141 101.439 103.647 102.832C102.643 105.6 101.623 108.32 100.587 111.032L94.4586 127.296L83.5947 122.916C85.8452 117.679 87.9581 112.336 90.0143 107.017C91.01 104.346 91.9895 101.666 92.9205 99.019C93.3819 97.6914 93.8352 96.3719 94.2319 95.0928C94.6286 93.8137 94.8391 92.9637 95.1952 91.3366C96.4824 85.6294 97.8748 80.0599 99.17 74.4256C100.465 68.7913 101.801 63.2056 103.064 57.5793L115.603 60.866Z" fill="#E0E0E0"/>
<g opacity="0.6">
<path opacity="0.6" d="M115.603 60.866C113.984 66.3708 112.398 71.8945 110.843 77.437C109.289 82.958 107.824 88.5356 106.415 94.0161C106.14 95.198 105.606 97.2542 105.112 98.5819C104.618 99.9095 104.141 101.439 103.647 102.832C102.643 105.6 101.623 108.32 100.587 111.032L94.4586 127.296L83.5947 122.916C85.8452 117.679 87.9581 112.336 90.0143 107.017C91.01 104.346 91.9895 101.666 92.9205 99.019C93.3819 97.6914 93.8352 96.3719 94.2319 95.0928C94.6286 93.8137 94.8391 92.9637 95.1952 91.3366C96.4824 85.6294 97.8748 80.0599 99.17 74.4256C100.465 68.7913 101.801 63.2056 103.064 57.5793L115.603 60.866Z" fill="white"/>
</g>
<path d="M121.854 135.634L76.4637 132.477C75.7949 132.424 75.17 132.124 74.7116 131.634C74.2532 131.144 73.9946 130.5 73.9866 129.83V98.6709C73.982 98.352 74.0443 98.0357 74.1695 97.7424C74.2947 97.449 74.4799 97.1852 74.7133 96.9678C74.9467 96.7504 75.223 96.5844 75.5245 96.4804C75.826 96.3763 76.1459 96.3366 76.4637 96.3638L121.854 99.5128C122.523 99.569 123.147 99.872 123.605 100.363C124.062 100.853 124.321 101.497 124.331 102.168V133.327C124.336 133.646 124.273 133.962 124.148 134.255C124.023 134.549 123.838 134.812 123.604 135.03C123.371 135.247 123.095 135.413 122.793 135.517C122.492 135.621 122.172 135.661 121.854 135.634V135.634Z" fill="#263238"/>
<path d="M122.64 135.172L77.2498 132.015C76.5811 131.963 75.9561 131.662 75.4977 131.172C75.0394 130.682 74.7807 130.039 74.7727 129.368V98.2095C74.7681 97.8906 74.8305 97.5743 74.9556 97.2809C75.0808 96.9876 75.266 96.7237 75.4994 96.5064C75.7328 96.289 76.0092 96.123 76.3106 96.0189C76.6121 95.9149 76.9321 95.8752 77.2498 95.9023L122.64 99.0514C123.308 99.1057 123.932 99.4069 124.39 99.8964C124.848 100.386 125.107 101.028 125.117 101.699V132.865C125.122 133.184 125.059 133.501 124.934 133.794C124.809 134.087 124.624 134.351 124.39 134.568C124.157 134.786 123.881 134.952 123.579 135.056C123.278 135.16 122.958 135.2 122.64 135.172V135.172Z" fill="#1987FB"/>
<path d="M137.356 50.9735C133.632 56.4701 120.558 64.8326 117.822 78.4488C114.139 65.4478 117.684 50.6415 117.684 50.6415C114.125 50.6133 110.581 51.0986 107.16 52.0825C106.047 52.401 105.046 53.0248 104.269 53.8832C103.492 54.7417 102.971 55.8004 102.765 56.9397C100.363 71.1901 99.3677 85.6422 99.7938 100.087C100.547 127.425 99.5752 169.707 99.5752 169.707C99.5752 169.707 127.31 171.326 149.07 168.978C148.543 148.092 143.128 112.611 143.978 103.342C145.071 91.4174 147.693 68.1435 149.045 58.4616C149.247 57.0898 148.949 55.6913 148.206 54.5206C147.463 53.3499 146.325 52.4847 144.998 52.0825C142.511 51.3755 139.941 51.0025 137.356 50.9735V50.9735Z" fill="#E0E0E0"/>
<path opacity="0.7" d="M137.356 50.9735C133.632 56.4701 120.558 64.8326 117.822 78.4488C114.139 65.4478 117.684 50.6415 117.684 50.6415C114.125 50.6133 110.581 51.0986 107.16 52.0825C106.047 52.401 105.046 53.0248 104.269 53.8832C103.492 54.7417 102.971 55.8004 102.765 56.9397C100.363 71.1901 99.3677 85.6422 99.7938 100.087C100.547 127.425 99.5752 169.707 99.5752 169.707C99.5752 169.707 127.31 171.326 149.07 168.978C148.543 148.092 143.128 112.611 143.978 103.342C145.071 91.4174 147.693 68.1354 149.045 58.4535C149.263 57.1303 149.004 55.7729 148.314 54.6227C147.625 53.4725 146.55 52.604 145.281 52.1716C142.708 51.4035 140.041 51.0002 137.356 50.9735V50.9735Z" fill="white"/>
<path d="M139.607 117.468L134.96 123.564L143.371 126.624C143.371 126.624 146.917 120.617 144.091 118.318L139.607 117.468Z" fill="#FF8B7B"/>
<path d="M135.859 131.311L139 131.886C139.617 131.99 140.252 131.877 140.796 131.567C141.34 131.258 141.761 130.77 141.987 130.186L143.371 126.624L134.96 123.564L133.867 128.227C133.783 128.561 133.768 128.908 133.824 129.248C133.88 129.588 134.005 129.913 134.192 130.202C134.379 130.491 134.623 130.739 134.91 130.93C135.197 131.121 135.52 131.251 135.859 131.311V131.311Z" fill="#FF8B7B"/>
<path d="M148.527 55.7336C149.742 58.397 150.875 60.9308 151.976 63.5618C153.077 66.1927 154.178 68.7913 155.214 71.4708C156.25 74.1504 157.181 76.8785 158.072 79.7361C158.501 81.1771 158.881 82.6504 159.229 84.2452C159.391 85.0547 159.537 85.8642 159.65 86.7547C159.781 87.7501 159.833 88.7544 159.804 89.758C159.804 90.098 159.755 90.4461 159.723 90.7861L159.593 91.5957C159.496 92.1461 159.383 92.5347 159.278 93.0123C159.051 93.8219 158.808 94.6314 158.565 95.3923C158.063 96.8819 157.537 98.2581 156.987 99.61C155.886 102.322 154.712 104.896 153.514 107.462C152.316 110.029 151.134 112.554 149.895 115.072C148.657 117.59 147.467 120.075 146.18 122.625L135.81 117.104C138.441 112.417 140.926 107.519 143.225 102.67C144.358 100.241 145.435 97.7723 146.39 95.3842C146.868 94.1861 147.321 92.9557 147.685 91.8547L147.936 91.0452L148.131 90.2761C148.131 90.0818 148.236 89.8066 148.244 89.6771V89.4585V89.0052C148.244 88.7866 148.203 88.6004 148.155 88.3414C148.082 87.8637 147.977 87.3376 147.847 86.7871C147.588 85.6861 147.24 84.5042 146.843 83.3142C146.034 80.8856 145.087 78.457 144.034 76.0285C142.982 73.5999 141.865 71.1713 140.675 68.7427C139.485 66.3142 138.246 63.8856 136.975 61.6513L148.527 55.7336Z" fill="#E0E0E0"/>
<g opacity="0.7">
<path opacity="0.7" d="M148.527 55.7336C149.742 58.397 150.875 60.9308 151.976 63.5618C153.077 66.1927 154.178 68.7913 155.214 71.4708C156.25 74.1504 157.181 76.8785 158.072 79.7361C158.501 81.1771 158.881 82.6504 159.229 84.2452C159.391 85.0547 159.537 85.8642 159.65 86.7547C159.781 87.7501 159.833 88.7544 159.804 89.758C159.804 90.098 159.755 90.4461 159.723 90.7861L159.593 91.5957C159.496 92.1461 159.383 92.5347 159.278 93.0123C159.051 93.8219 158.808 94.6314 158.565 95.3923C158.063 96.8819 157.537 98.2581 156.987 99.61C155.886 102.322 154.712 104.896 153.514 107.462C152.316 110.029 151.134 112.554 149.895 115.072C148.657 117.59 147.467 120.075 146.18 122.625L135.81 117.104C138.441 112.417 140.926 107.519 143.225 102.67C144.358 100.241 145.435 97.7723 146.39 95.3842C146.868 94.1861 147.321 92.9557 147.685 91.8547L147.936 91.0452L148.131 90.2761C148.131 90.0818 148.236 89.8066 148.244 89.6771V89.4585V89.0052C148.244 88.7866 148.203 88.6004 148.155 88.3414C148.082 87.8637 147.977 87.3376 147.847 86.7871C147.588 85.6861 147.24 84.5042 146.843 83.3142C146.034 80.8856 145.087 78.457 144.034 76.0285C142.982 73.5999 141.865 71.1713 140.675 68.7427C139.485 66.3142 138.246 63.8856 136.975 61.6513L148.527 55.7336Z" fill="white"/>
</g>
<path d="M131.415 118.707L144.586 128.122C144.586 128.122 146.431 140.758 139.21 141.997C131.989 143.235 130.127 127.814 131.415 118.707Z" fill="#1987FB"/>
<path opacity="0.5" d="M131.415 118.707L144.586 128.122C144.586 128.122 146.431 140.758 139.21 141.997C131.989 143.235 130.127 127.814 131.415 118.707Z" fill="white"/>
<path d="M103.478 118.707L99.0251 128.122C99.0251 128.122 97.908 140.758 100.053 141.997C102.198 143.235 103.461 127.814 103.478 118.707Z" fill="#1987FB"/>
<path opacity="0.5" d="M103.478 118.707L99.0251 128.122C99.0251 128.122 97.908 140.758 100.053 141.997C102.198 143.235 103.461 127.814 103.478 118.707Z" fill="white"/>
<path opacity="0.5" d="M119.077 167.165C116.972 140.596 117.272 84.9331 117.458 79.9626H117.928C117.758 84.9331 117.466 140.556 119.547 167.108L119.077 167.165Z" fill="#407BFF"/>
<path d="M181.149 38.3857C175.199 42.6924 170.253 59.5872 184.444 66.4115C198.635 73.2358 218.647 72.6853 212.6 57.8467C206.552 43.0081 208.714 34.2814 194.434 32.5895C180.154 30.8976 181.149 38.3857 181.149 38.3857Z" fill="#263238"/>
<path d="M219.392 127.28L222.258 128.276L225.901 133.796C226.433 134.604 226.67 135.57 226.573 136.533L226.362 138.492C226.331 138.816 226.184 139.119 225.947 139.344C225.711 139.568 225.401 139.7 225.075 139.714L221.27 139.844C220.926 139.849 220.591 139.729 220.329 139.505C220.066 139.282 219.895 138.97 219.845 138.629L219.36 134.153C219.36 134.153 217.514 129.684 219.392 127.28Z" fill="#FFB573"/>
<path d="M214.868 82.2944C214.803 84.3506 214.787 86.5525 214.803 88.6816C214.82 90.8107 214.86 92.9802 214.933 95.1578C215.087 99.4402 215.386 103.715 215.912 107.884L215.961 108.394C215.961 108.394 215.961 108.232 215.961 108.272C215.961 108.313 215.961 108.272 215.961 108.385V108.588L216.026 108.839C216.115 109.195 216.228 109.6 216.35 110.021C216.592 110.83 216.884 111.737 217.159 112.611C217.766 114.368 218.446 116.149 219.142 117.922C219.839 119.695 220.567 121.459 221.32 123.208C222.073 124.956 222.858 126.713 223.651 128.251L217.588 131.781C216.447 129.943 215.524 128.219 214.577 126.454C213.63 124.689 212.747 122.925 211.865 121.144C210.982 119.363 210.14 117.565 209.323 115.704C208.91 114.773 208.513 113.834 208.125 112.83C207.93 112.328 207.744 111.81 207.566 111.211L207.437 110.765L207.299 110.264C207.259 110.094 207.218 109.859 207.178 109.656C207.137 109.454 207.097 109.09 207.072 108.806L207.129 109.316C206.239 104.807 205.615 100.323 205.138 95.8378C204.903 93.5954 204.7 91.3611 204.53 89.1106C204.36 86.8602 204.223 84.6582 204.134 82.3106L214.868 82.2944Z" fill="#1987FB"/>
<path opacity="0.5" d="M214.868 82.2944C214.803 84.3506 214.787 86.5525 214.803 88.6816C214.82 90.8107 214.86 92.9802 214.933 95.1578C215.087 99.4402 215.386 103.715 215.912 107.884L215.961 108.394C215.961 108.394 215.961 108.232 215.961 108.272C215.961 108.313 215.961 108.272 215.961 108.385V108.588L216.026 108.839C216.115 109.195 216.228 109.6 216.35 110.021C216.592 110.83 216.884 111.737 217.159 112.611C217.766 114.368 218.446 116.149 219.142 117.922C219.839 119.695 220.567 121.459 221.32 123.208C222.073 124.956 222.858 126.713 223.651 128.251L217.588 131.781C216.447 129.943 215.524 128.219 214.577 126.454C213.63 124.689 212.747 122.925 211.865 121.144C210.982 119.363 210.14 117.565 209.323 115.704C208.91 114.773 208.513 113.834 208.125 112.83C207.93 112.328 207.744 111.81 207.566 111.211L207.437 110.765L207.299 110.264C207.259 110.094 207.218 109.859 207.178 109.656C207.137 109.454 207.097 109.09 207.072 108.806L207.129 109.316C206.239 104.807 205.615 100.323 205.138 95.8378C204.903 93.5954 204.7 91.3611 204.53 89.1106C204.36 86.8602 204.223 84.6582 204.134 82.3106L214.868 82.2944Z" fill="white"/>
<path d="M209.808 119.452C209.808 119.452 208.869 174.669 206.57 197.02C203.64 226.163 195.779 250.773 193.925 270.906L187.417 269.975C187.417 269.975 186.996 220.683 192.913 197.118C187.546 172.128 187.417 119.484 187.417 119.484L209.808 119.452Z" fill="#FFB573"/>
<path d="M204.149 119.452C204.149 119.452 194.92 175.26 189.723 197.66C182.947 226.884 182.008 272.905 182.008 272.905L175.896 272.315C175.896 272.315 168.87 230.357 176.431 197.66C175.864 172.565 180.753 119.452 180.753 119.452H204.149Z" fill="#FFB573"/>
<path d="M213.692 79.7848C214.015 85.1438 214.266 100.29 211.384 123.451H179.999C180.04 112.231 180.954 101.488 175.838 80.3919C175.639 79.6263 175.605 78.8269 175.738 78.0471C175.872 77.2673 176.171 76.5251 176.615 75.87C177.058 75.2149 177.637 74.6619 178.311 74.2482C178.985 73.8344 179.74 73.5692 180.525 73.4704C182.298 73.2438 184.322 73.0414 186.435 72.9443C190.973 72.612 195.529 72.612 200.067 72.9443C203.014 73.2114 206.171 73.6809 208.575 74.0938C209.944 74.3293 211.193 75.019 212.121 76.0515C213.049 77.084 213.603 78.3992 213.692 79.7848V79.7848Z" fill="white"/>
<path d="M188.781 58.1138C189.81 62.5014 190.975 70.5319 188.021 73.4948C188.021 73.4948 190.757 77.8419 199.232 81.501C203.903 78.6757 201.661 73.4948 201.661 73.4948C196.723 72.329 196.715 68.6943 197.435 65.2862L188.781 58.1138Z" fill="#FFB573"/>
<path opacity="0.2" d="M192.313 61.0283L197.429 65.254C197.244 66.0516 197.132 66.8646 197.097 67.6826C195.219 67.4074 192.572 65.3593 192.296 63.4002C192.158 62.6152 192.163 61.8114 192.313 61.0283V61.0283Z" fill="black"/>
<path d="M183.854 50.0672C185.829 57.1991 186.525 60.2591 190.832 63.3272C197.308 67.9577 205.306 64.331 205.404 56.851C205.501 50.1076 202.246 39.5676 194.823 37.9162C187.4 36.2647 181.871 42.9271 183.854 50.0672Z" fill="#FFB573"/>
<path d="M185.31 53.8316C187.051 52.3258 188.783 45.7363 187.877 42.9353C194.102 43.4453 199.291 41.2515 201.8 43.3725C202.068 40.1344 199.186 35.7468 194.061 35.7953C188.937 35.8439 176.616 42.0044 185.31 53.8316Z" fill="#263238"/>
<path d="M193.753 50.302C193.875 50.893 194.287 51.3139 194.668 51.2411C195.048 51.1682 195.259 50.642 195.129 50.0592C195 49.4763 194.595 49.0473 194.215 49.1201C193.834 49.193 193.624 49.7192 193.753 50.302Z" fill="#263238"/>
<path d="M200.789 49.0147C200.918 49.6056 201.331 50.0266 201.712 49.9537C202.092 49.8809 202.303 49.3547 202.173 48.7718C202.044 48.189 201.639 47.7599 201.25 47.8328C200.862 47.9056 200.667 48.4318 200.789 49.0147Z" fill="#263238"/>
<path d="M201.097 47.8896L202.408 47.2339C202.408 47.2339 201.922 48.4644 201.097 47.8896Z" fill="#263238"/>
<path d="M199.761 50.2859C200.57 51.5343 201.542 52.6695 202.651 53.6616C202.396 53.9308 202.084 54.1396 201.738 54.2726C201.392 54.4057 201.021 54.4597 200.651 54.4307L199.761 50.2859Z" fill="#ED893E"/>
<path d="M198.296 57.3852C198.63 57.3827 198.963 57.3502 199.291 57.2881C199.314 57.2843 199.335 57.276 199.354 57.2635C199.373 57.251 199.389 57.2347 199.401 57.2156C199.413 57.1966 199.421 57.1751 199.425 57.1528C199.428 57.1304 199.427 57.1075 199.421 57.0857C199.409 57.0406 199.381 57.0014 199.342 56.976C199.303 56.9505 199.256 56.9405 199.21 56.9481C198.476 57.0889 197.72 57.0584 196.999 56.859C196.279 56.6596 195.615 56.2967 195.057 55.7985C195.024 55.7654 194.979 55.7468 194.932 55.7468C194.885 55.7468 194.84 55.7654 194.806 55.7985C194.775 55.8328 194.758 55.8776 194.758 55.924C194.758 55.9704 194.775 56.0152 194.806 56.0495C195.76 56.9172 197.006 57.3941 198.296 57.3852Z" fill="#263238"/>
<path d="M182.243 55.0134C183.025 56.2265 184.241 57.0951 185.643 57.442C187.504 57.8791 188.29 56.2358 187.658 54.5601C187.092 53.0463 185.448 50.9982 183.611 51.322C181.773 51.6458 181.303 53.5239 182.243 55.0134Z" fill="#FFB573"/>
<path d="M192.192 47.2743C192.24 47.2699 192.287 47.2553 192.328 47.2316C192.37 47.2078 192.407 47.1755 192.435 47.1367C192.689 46.7847 193.023 46.4992 193.411 46.3047C193.799 46.1101 194.228 46.0123 194.661 46.0195C194.752 46.0263 194.842 45.997 194.912 45.9379C194.982 45.8788 195.025 45.7948 195.034 45.7038C195.034 45.6108 195.001 45.5207 194.94 45.4506C194.879 45.3805 194.794 45.3352 194.702 45.3233C194.152 45.3053 193.607 45.4221 193.113 45.6634C192.619 45.9047 192.192 46.2632 191.868 46.7076C191.814 46.7818 191.791 46.8745 191.805 46.9655C191.818 47.0566 191.867 47.1385 191.941 47.1934C192.015 47.2455 192.102 47.2738 192.192 47.2743V47.2743Z" fill="#263238"/>
<path d="M203.113 45.1047C203.154 45.0889 203.192 45.065 203.224 45.0344C203.256 45.0039 203.281 44.9672 203.299 44.9266C203.318 44.8846 203.328 44.8394 203.329 44.7934C203.331 44.7474 203.323 44.7016 203.306 44.6587C203.29 44.6158 203.265 44.5766 203.233 44.5434C203.201 44.5102 203.163 44.4836 203.121 44.4652C202.627 44.2083 202.079 44.0742 201.522 44.0742C200.965 44.0742 200.417 44.2083 199.923 44.4652C199.884 44.4898 199.85 44.5221 199.824 44.56C199.797 44.5979 199.778 44.6407 199.769 44.6859C199.759 44.7312 199.758 44.7779 199.767 44.8234C199.775 44.8689 199.793 44.9122 199.818 44.9509C199.868 45.0294 199.946 45.0857 200.037 45.1083C200.127 45.1308 200.223 45.118 200.304 45.0723C200.695 44.8693 201.13 44.7634 201.571 44.7634C202.012 44.7634 202.446 44.8693 202.838 45.0723C202.878 45.0972 202.924 45.113 202.972 45.1186C203.019 45.1242 203.067 45.1194 203.113 45.1047V45.1047Z" fill="#263238"/>
<path d="M194.054 49.1767L195.365 48.521C195.365 48.521 194.879 49.7839 194.054 49.1767Z" fill="#263238"/>
<path d="M211.386 123.451L212.009 209.301C197.438 210.491 183.506 210.046 170.359 207.471C169.493 175.26 163.195 139.763 180.001 123.451H211.386Z" fill="#263238"/>
<path opacity="0.2" d="M195.154 181.55L191.867 153.298L199.76 145.146L195.154 181.55Z" fill="black"/>
<path d="M215.11 85.1116C214.713 77.5749 213.491 74.5878 208.536 73.6811C203.582 72.7745 198.927 72.2563 198.927 72.2563C200.613 73.359 202.042 74.8109 203.117 76.5138C204.193 78.2166 204.89 80.1307 205.162 82.1264C205.434 84.1221 205.274 86.1529 204.692 88.0814C204.111 90.0098 203.122 91.7909 201.793 93.304C198.458 87.1031 185.805 77.3888 188.84 72.3292C185.882 72.1785 182.916 72.3905 180.009 72.9606C175.151 73.8997 173.727 77.2592 174.925 84.7392C178.009 103.844 175.653 127.045 175.653 127.045C175.653 127.045 193.73 135.561 199.737 137.188C209.297 134.857 211.402 128.17 211.402 128.17C211.402 128.17 215.547 92.6888 215.11 85.1116Z" fill="#1987FB"/>
<path opacity="0.6" d="M215.11 85.1116C214.713 77.5749 213.491 74.5878 208.536 73.6811C203.582 72.7745 198.927 72.2563 198.927 72.2563C200.613 73.359 202.042 74.8109 203.117 76.5138C204.193 78.2166 204.89 80.1307 205.162 82.1264C205.434 84.1221 205.274 86.1529 204.692 88.0814C204.111 90.0098 203.122 91.7909 201.793 93.304C198.458 87.1031 185.805 77.3888 188.84 72.3292C185.882 72.1785 182.916 72.3905 180.009 72.9606C175.151 73.8997 173.727 77.2592 174.925 84.7392C178.009 103.844 175.653 127.045 175.653 127.045C175.653 127.045 193.73 135.561 199.737 137.188C209.297 134.857 211.402 128.17 211.402 128.17C211.402 128.17 215.547 92.6888 215.11 85.1116Z" fill="white"/>
<path d="M188.177 99.7478C184.809 94.834 182.284 87.6049 184.243 83.9539C184.608 83.2808 185.16 82.7273 185.832 82.3597C186.504 81.9921 187.267 81.8261 188.031 81.8815C188.686 81.8778 189.334 82.013 189.933 82.2781C190.531 82.5432 191.067 82.9323 191.504 83.4196C193.69 85.8077 194.451 90.7701 193.827 98.574L193.018 98.5092C193.617 91.0454 192.905 86.1558 190.913 83.9782C190.554 83.5718 190.111 83.2479 189.615 83.0285C189.119 82.8092 188.582 82.6996 188.039 82.7073C187.429 82.6555 186.816 82.7807 186.275 83.0678C185.734 83.3549 185.287 83.7918 184.987 84.3263C183.425 87.2568 185.133 93.8221 188.873 99.2702L188.177 99.7478Z" fill="#263238"/>
<path d="M188.865 101.189C189.549 101.189 190.103 100.38 190.103 99.3834C190.103 98.3864 189.549 97.5781 188.865 97.5781C188.181 97.5781 187.626 98.3864 187.626 99.3834C187.626 100.38 188.181 101.189 188.865 101.189Z" fill="#263238"/>
<path d="M194.782 98.8978C194.782 99.8935 194.223 100.703 193.543 100.703C192.863 100.703 192.305 99.8935 192.305 98.8978C192.305 97.9021 192.863 97.0925 193.543 97.0925C194.223 97.0925 194.782 97.9021 194.782 98.8978Z" fill="#263238"/>
<path d="M210.771 84.1969C210.798 84.5956 210.707 84.9933 210.509 85.3404C210.311 85.6875 210.015 85.9685 209.658 86.1483C209.301 86.3281 208.899 86.3986 208.503 86.3512C208.106 86.3038 207.732 86.1404 207.428 85.8816C207.123 85.6227 206.902 85.2799 206.791 84.8959C206.681 84.512 206.686 84.1039 206.806 83.7229C206.926 83.3418 207.156 83.0046 207.467 82.7534C207.777 82.5022 208.155 82.3483 208.553 82.3107C209.097 82.2682 209.636 82.4427 210.051 82.7962C210.467 83.1496 210.726 83.6532 210.771 84.1969V84.1969Z" fill="#263238"/>
<path d="M187.626 82.7235C187.544 82.7223 187.463 82.6962 187.395 82.6485C187.327 82.6009 187.275 82.5339 187.246 82.4563C186.158 79.1588 185.834 75.657 186.299 72.2158C186.304 72.1618 186.32 72.1093 186.345 72.0615C186.371 72.0138 186.406 71.9716 186.448 71.9376C186.491 71.9037 186.539 71.8785 186.591 71.8637C186.644 71.8489 186.698 71.8448 186.752 71.8515C186.86 71.8637 186.959 71.9183 187.028 72.0032C187.096 72.0881 187.128 72.1965 187.116 72.3049C186.699 75.6184 187.008 78.9831 188.023 82.1649C188.044 82.2148 188.055 82.2683 188.055 82.3225C188.055 82.3766 188.044 82.4301 188.023 82.4799C188.001 82.5297 187.971 82.5748 187.932 82.6125C187.893 82.6501 187.847 82.6796 187.796 82.6992C187.742 82.7204 187.684 82.7287 187.626 82.7235V82.7235Z" fill="#263238"/>
<path d="M209.532 84.1726C209.426 84.1728 209.325 84.1326 209.248 84.0604C209.171 83.9881 209.125 83.8892 209.119 83.784C209.119 83.695 208.544 74.6364 201.461 72.9687C201.355 72.9437 201.263 72.8777 201.205 72.7852C201.147 72.6927 201.129 72.5812 201.153 72.4749C201.18 72.3682 201.247 72.2763 201.341 72.2188C201.435 72.1613 201.548 72.1428 201.655 72.1673C209.337 73.9806 209.936 83.6464 209.944 83.7435C209.948 83.7974 209.94 83.8513 209.922 83.9022C209.904 83.953 209.877 83.9999 209.84 84.0398C209.804 84.0798 209.76 84.1121 209.712 84.1349C209.663 84.1577 209.61 84.1705 209.556 84.1726H209.532Z" fill="#263238"/>
<path d="M189.035 115.145L196.118 88.1635C196.243 87.7526 196.498 87.393 196.843 87.1378C197.189 86.8827 197.607 86.7456 198.037 86.7468L217.328 87.4673C217.514 87.4636 217.699 87.5045 217.867 87.5866C218.034 87.6686 218.18 87.7894 218.292 87.939C218.403 88.0886 218.478 88.2626 218.508 88.4467C218.539 88.6307 218.526 88.8195 218.469 88.9973L211.353 115.979C211.229 116.39 210.976 116.751 210.63 117.006C210.284 117.261 209.865 117.398 209.435 117.396L190.152 116.675C189.967 116.675 189.786 116.631 189.621 116.547C189.457 116.464 189.314 116.342 189.205 116.193C189.096 116.044 189.024 115.872 188.995 115.69C188.965 115.507 188.979 115.321 189.035 115.145V115.145Z" fill="#263238"/>
<path d="M189.236 115.623L196.352 88.6411C196.475 88.2289 196.729 87.8677 197.075 87.6122C197.421 87.3567 197.84 87.2206 198.271 87.2244L217.554 87.9449C217.741 87.9394 217.926 87.9791 218.095 88.0606C218.264 88.1421 218.41 88.263 218.522 88.4131C218.634 88.5632 218.708 88.738 218.738 88.9229C218.768 89.1077 218.754 89.2971 218.695 89.4749L211.587 116.465C211.46 116.875 211.204 117.234 210.857 117.488C210.51 117.742 210.091 117.877 209.661 117.873L190.378 117.153C190.191 117.158 190.005 117.118 189.836 117.037C189.668 116.955 189.521 116.835 189.409 116.684C189.297 116.534 189.223 116.36 189.193 116.175C189.163 115.99 189.178 115.8 189.236 115.623Z" fill="#1987FB"/>
<path d="M186.702 106.524L187.042 103.504L191.64 98.7441C192.314 98.0527 193.207 97.6153 194.166 97.5055L196.125 97.2789C196.448 97.2382 196.776 97.3158 197.046 97.4973C197.317 97.6787 197.513 97.9519 197.598 98.2665L198.554 101.958C198.624 102.288 198.575 102.632 198.415 102.929C198.255 103.225 197.994 103.455 197.679 103.577L193.413 105.018C193.413 105.018 189.463 107.835 186.702 106.524Z" fill="#FFB573"/>
<path d="M184.444 81.6629C184.153 82.0434 183.781 82.5614 183.449 83.0229L182.437 84.4881C181.762 85.4757 181.114 86.4769 180.494 87.4915C179.253 89.4991 178.116 91.5688 177.086 93.6924C176.1 95.7196 175.288 97.8265 174.657 99.9906C174.07 101.867 173.815 103.831 173.904 105.795L172.083 102.792C171.573 102.468 171.589 102.581 171.702 102.605C171.906 102.67 172.114 102.719 172.326 102.751C172.949 102.86 173.579 102.925 174.212 102.945C175.668 102.987 177.125 102.941 178.575 102.808C180.065 102.678 181.554 102.468 183.011 102.192C184.433 101.927 185.834 101.562 187.205 101.1L189.892 107.576C188.245 108.322 186.546 108.947 184.809 109.446C183.125 109.944 181.418 110.354 179.692 110.676C177.927 111.01 176.143 111.238 174.35 111.356C173.36 111.421 172.368 111.421 171.379 111.356C170.779 111.32 170.184 111.236 169.598 111.105C168.657 110.917 167.765 110.54 166.975 109.996V109.996L165.445 108.992L165.153 107.001C164.743 103.916 164.905 100.782 165.631 97.7563C166.255 95.0198 167.111 92.3414 168.189 89.75C169.22 87.2475 170.38 84.7995 171.662 82.4157C172.293 81.2338 172.949 80.0654 173.629 78.9105L174.681 77.1862C175.046 76.5952 175.378 76.069 175.823 75.4133L184.444 81.6629Z" fill="#1987FB"/>
<path opacity="0.6" d="M184.444 81.6629C184.153 82.0434 183.781 82.5614 183.449 83.0229L182.437 84.4881C181.762 85.4757 181.114 86.4769 180.494 87.4915C179.253 89.4991 178.116 91.5688 177.086 93.6924C176.1 95.7196 175.288 97.8265 174.657 99.9906C174.07 101.867 173.815 103.831 173.904 105.795L172.083 102.792C171.573 102.468 171.589 102.581 171.702 102.605C171.906 102.67 172.114 102.719 172.326 102.751C172.949 102.86 173.579 102.925 174.212 102.945C175.668 102.987 177.125 102.941 178.575 102.808C180.065 102.678 181.554 102.468 183.011 102.192C184.433 101.927 185.834 101.562 187.205 101.1L189.892 107.576C188.245 108.322 186.546 108.947 184.809 109.446C183.125 109.944 181.418 110.354 179.692 110.676C177.927 111.01 176.143 111.238 174.35 111.356C173.36 111.421 172.368 111.421 171.379 111.356C170.779 111.32 170.184 111.236 169.598 111.105C168.657 110.917 167.765 110.54 166.975 109.996V109.996L165.445 108.992L165.153 107.001C164.743 103.916 164.905 100.782 165.631 97.7563C166.255 95.0198 167.111 92.3414 168.189 89.75C169.22 87.2475 170.38 84.7995 171.662 82.4157C172.293 81.2338 172.949 80.0654 173.629 78.9105L174.681 77.1862C175.046 76.5952 175.378 76.069 175.823 75.4133L184.444 81.6629Z" fill="white"/>
</svg>
