<svg width="18" height="18" viewBox="0 0 18 18" fill="none" xmlns="http://www.w3.org/2000/svg">
<g clip-path="url(#clip0_618_358)">
<path d="M3.98918 10.8776L3.36263 13.2166L1.07258 13.2651C0.388195 11.9957 0 10.5433 0 8.99998C0 7.50756 0.362953 6.10018 1.00631 4.86096H1.0068L3.04559 5.23474L3.9387 7.26129C3.75177 7.80625 3.64989 8.39125 3.64989 8.99998C3.64996 9.66063 3.76963 10.2936 3.98918 10.8776Z" fill="#FBBB00"/>
<path d="M17.8431 7.3186C17.9465 7.86303 18.0004 8.42529 18.0004 8.99992C18.0004 9.64426 17.9326 10.2728 17.8036 10.8791C17.3655 12.9421 16.2207 14.7436 14.6348 16.0184L14.6343 16.0179L12.0664 15.8869L11.7029 13.6181C12.7552 13.001 13.5776 12.0352 14.0108 10.8791H9.19824V7.3186H14.081H17.8431Z" fill="#518EF8"/>
<path d="M14.6336 16.0181L14.6341 16.0185C13.0917 17.2583 11.1325 18 8.99968 18C5.57227 18 2.59239 16.0843 1.07227 13.2651L3.98886 10.8777C4.74891 12.9061 6.70567 14.3501 8.99968 14.3501C9.98571 14.3501 10.9095 14.0835 11.7021 13.6182L14.6336 16.0181Z" fill="#28B446"/>
<path d="M14.7442 2.07197L11.8286 4.45894C11.0082 3.94615 10.0385 3.64992 8.99955 3.64992C6.65361 3.64992 4.66025 5.16013 3.93828 7.26131L1.00635 4.86098H1.00586C2.50373 1.97307 5.52119 0 8.99955 0C11.1833 0 13.1855 0.777867 14.7442 2.07197Z" fill="#F14336"/>
</g>
<defs>
<clipPath id="clip0_618_358">
<rect width="18" height="18" fill="white"/>
</clipPath>
</defs>
</svg>
