<svg width="16" height="13" viewBox="0 0 16 13" fill="none" xmlns="http://www.w3.org/2000/svg">
<path d="M7.111 1.75111C7.40609 1.71688 7.70293 1.69982 8 1.70001C11.2648 1.70001 13.88 3.73211 15 6.60001C14.7289 7.29762 14.3626 7.95438 13.9115 8.55161M4.164 2.76331C2.736 3.63481 1.63 4.98511 1 6.60001C2.12 9.46791 4.7352 11.5 8 11.5C9.35249 11.5071 10.6804 11.1388 11.836 10.436M6.516 5.11601C6.32098 5.31103 6.16628 5.54256 6.06074 5.79736C5.95519 6.05217 5.90087 6.32526 5.90087 6.60106C5.90087 6.87686 5.95519 7.14996 6.06074 7.40477C6.16628 7.65957 6.32098 7.89109 6.516 8.08611C6.71102 8.28113 6.94254 8.43583 7.19735 8.54137C7.45215 8.64692 7.72525 8.70124 8.00105 8.70124C8.27685 8.70124 8.54995 8.64692 8.80475 8.54137C9.05956 8.43583 9.29108 8.28113 9.4861 8.08611" stroke="#090F47" stroke-opacity="0.45" stroke-width="1.5" stroke-linecap="round" stroke-linejoin="round"/>
<path d="M2.40002 1L13.6 12.2" stroke="#090F47" stroke-opacity="0.45" stroke-width="1.5" stroke-linecap="round"/>
</svg>
