<svg width="316" height="266" viewBox="0 0 316 266" fill="none" xmlns="http://www.w3.org/2000/svg">
<circle cx="159.952" cy="100.711" r="100.711" fill="#4157FF" fill-opacity="0.03"/>
<path d="M316 236.898H0V237.056H316V236.898Z" fill="#EBEBEB"/>
<path d="M284.337 247.067H263.405V247.225H284.337V247.067Z" fill="#EBEBEB"/>
<path d="M170.55 245.139H151.451V245.297H170.55V245.139Z" fill="#EBEBEB"/>
<path d="M262.773 241.202H218.603V241.36H262.773V241.202Z" fill="#EBEBEB"/>
<path d="M138.786 242.264H33.1533V242.422H138.786V242.264Z" fill="#EBEBEB"/>
<path d="M148.414 242.264H144.413V242.422H148.414V242.264Z" fill="#EBEBEB"/>
<path d="M149.785 208.711H27.7518C26.7958 208.709 25.8795 208.328 25.2041 207.652C24.5287 206.975 24.1494 206.058 24.1494 205.102V33.5583C24.1577 32.6078 24.5407 31.699 25.2152 31.0292C25.8897 30.3594 26.8013 29.9828 27.7518 29.9812H149.785C150.742 29.9812 151.66 30.3614 152.336 31.0382C153.013 31.7149 153.393 32.6328 153.393 33.5899V205.102C153.393 206.059 153.013 206.977 152.336 207.654C151.66 208.331 150.742 208.711 149.785 208.711V208.711ZM27.7518 30.1076C26.8377 30.1093 25.9616 30.4736 25.3159 31.1205C24.6701 31.7675 24.3074 32.6442 24.3074 33.5583V205.102C24.3074 206.016 24.6701 206.893 25.3159 207.54C25.9616 208.187 26.8377 208.551 27.7518 208.553H149.785C150.699 208.551 151.576 208.187 152.223 207.54C152.87 206.893 153.234 206.017 153.235 205.102V33.5583C153.234 32.6436 152.87 31.7669 152.223 31.1201C151.576 30.4734 150.699 30.1093 149.785 30.1076H27.7518Z" fill="#EBEBEB"/>
<path d="M286.493 208.711H164.453C163.497 208.709 162.58 208.328 161.904 207.652C161.227 206.976 160.846 206.059 160.845 205.102V33.5583C160.855 32.6072 161.239 31.6984 161.915 31.0288C162.59 30.3592 163.502 29.9828 164.453 29.9812H286.493C287.442 29.9845 288.352 30.3618 289.025 31.0314C289.698 31.701 290.08 32.6089 290.089 33.5583V205.102C290.089 206.057 289.71 206.973 289.036 207.649C288.362 208.326 287.448 208.707 286.493 208.711V208.711ZM164.453 30.1076C163.539 30.1093 162.662 30.4734 162.015 31.1201C161.368 31.7669 161.004 32.6436 161.003 33.5583V205.102C161.004 206.017 161.368 206.893 162.015 207.54C162.662 208.187 163.539 208.551 164.453 208.553H286.493C287.407 208.551 288.284 208.187 288.931 207.54C289.578 206.893 289.942 206.017 289.943 205.102V33.5583C289.942 32.6436 289.578 31.7669 288.931 31.1201C288.284 30.4734 287.407 30.1093 286.493 30.1076H164.453Z" fill="#EBEBEB"/>
<path d="M212.118 121.937H212.883V46.685H212.118V121.937Z" fill="#EBEBEB"/>
<path opacity="0.3" d="M122.665 114.34C122.664 105.376 120.095 96.5995 115.261 89.0502C110.427 81.501 103.53 75.4953 95.3882 71.7444C87.2463 67.9935 78.1999 66.6546 69.3206 67.8862C60.4412 69.1177 52.1007 72.8682 45.287 78.6935C38.4732 84.5187 33.4717 92.1747 30.8746 100.755C28.2776 109.335 28.1938 118.479 30.6333 127.105C33.0727 135.731 37.9332 143.478 44.6391 149.427C51.345 155.376 59.6154 159.278 68.4707 160.672C67.9605 161.051 67.5824 161.58 67.3903 162.185C67.1982 162.791 67.2017 163.441 67.4005 164.045C67.5992 164.648 67.9831 165.173 68.4974 165.546C69.0118 165.918 69.6305 166.119 70.2656 166.12H71.5296L67.3268 236.904H84.1317L79.9289 166.12H81.2308C81.8674 166.122 82.4882 165.922 83.0043 165.55C83.5204 165.177 83.9053 164.651 84.1038 164.046C84.3024 163.441 84.3044 162.789 84.1096 162.183C83.9148 161.577 83.5332 161.048 83.0194 160.672C94.0649 158.942 104.129 153.322 111.398 144.827C118.667 136.333 122.662 125.521 122.665 114.34V114.34ZM75.7577 153.815C67.9491 153.814 60.3162 151.497 53.8243 147.158C47.3323 142.819 42.2729 136.652 39.2859 129.437C36.2988 122.222 35.5182 114.284 37.0428 106.626C38.5674 98.9672 42.3288 91.933 47.8512 86.4123C53.3736 80.8917 60.409 77.1326 68.0678 75.6104C75.7266 74.0883 83.6648 74.8714 90.8786 77.8608C98.0923 80.8502 104.258 85.9115 108.595 92.4049C112.932 98.8982 115.246 106.532 115.245 114.34C115.245 119.525 114.224 124.66 112.239 129.45C110.254 134.24 107.346 138.592 103.679 142.258C100.012 145.923 95.6586 148.831 90.8679 150.814C86.0771 152.797 80.9426 153.817 75.7577 153.815V153.815Z" fill="#E6E6E6"/>
<path d="M223.247 185.27C217.117 177.806 220.049 164.932 227.342 162.581C234.636 160.23 239.869 153.916 242.251 147.937C244.634 141.959 254.348 129.881 265.977 128.004C277.605 126.127 276.935 123.46 288.653 120.18C300.37 116.9 310.773 128.124 296.97 132.1C283.167 136.075 293.032 153.885 278.566 160.634C264.1 167.384 264.592 175.505 263.259 184.733C261.925 193.96 236.791 201.765 223.247 185.27Z" fill="#EBEBEB"/>
<path d="M222.078 209.336L221.446 209.178C229.896 177.111 249.216 155.635 263.929 143.267C279.868 129.869 294.006 123.972 294.152 123.915L294.392 124.497C294.246 124.554 280.184 130.425 264.315 143.766C249.697 156.078 230.484 177.439 222.078 209.336Z" fill="#FAFAFA"/>
<path d="M207.144 194.365C197.936 189.783 193.841 175.164 199.004 169.141C204.168 163.118 205.47 154.068 204.465 146.775C203.46 139.482 205.729 122.31 214.893 114.619C224.057 106.927 222.123 104.507 230.693 95.3554C239.263 86.204 254.127 92.4861 244.116 103.401C234.106 114.315 251.941 127.619 242.783 141.713C233.625 155.806 238.258 163.833 241.86 173.945C245.463 184.057 227.52 204.495 207.144 194.365Z" fill="#6FCF97"/>
<path d="M215.67 208.313C207.454 184.821 212.586 157.121 218.35 138.021C224.67 117.026 233.954 99.7665 237.31 97.5735L237.657 98.098C232.007 101.827 200.761 163.826 216.277 208.117L215.67 208.313Z" fill="#FAFAFA"/>
<path d="M240.324 200.267H200.464L204.49 236.898H236.298L240.324 200.267Z" fill="#F5F5F5"/>
<path d="M158.001 265.439C225.678 265.439 280.54 262.236 280.54 258.285C280.54 254.334 225.678 251.131 158.001 251.131C90.3252 251.131 35.4629 254.334 35.4629 258.285C35.4629 262.236 90.3252 265.439 158.001 265.439Z" fill="#F5F5F5"/>
<path d="M104.786 69.8225C112.168 69.8225 118.153 63.8379 118.153 56.4557C118.153 49.0734 112.168 43.0889 104.786 43.0889C97.4035 43.0889 91.4189 49.0734 91.4189 56.4557C91.4189 63.8379 97.4035 69.8225 104.786 69.8225Z" fill="#263238"/>
<path d="M120.036 242.043L115.416 245.095L108.003 235.002L112.623 231.95L120.036 242.043Z" fill="#7F3E3B"/>
<path d="M115.025 244.596L120.081 241.265C120.165 241.204 120.269 241.177 120.372 241.191C120.474 241.205 120.567 241.259 120.631 241.341L123.595 245.133C123.667 245.235 123.718 245.35 123.744 245.473C123.771 245.595 123.772 245.721 123.748 245.844C123.725 245.967 123.677 246.083 123.607 246.187C123.537 246.291 123.447 246.379 123.342 246.447C121.51 247.617 118.83 249.241 116.542 250.758C113.869 252.521 114.254 253.747 110.664 254.783C108.49 255.415 107.618 253.305 108.503 252.843C112.522 250.72 111.947 249.835 114.102 245.708C114.314 245.267 114.631 244.885 115.025 244.596V244.596Z" fill="#263238"/>
<path opacity="0.2" d="M108.003 235.009L111.827 240.21L116.446 237.151L112.629 231.95L108.003 235.009Z" fill="black"/>
<path d="M108.661 79.2141C101.709 77.6657 94.5798 77.5204 87.3371 78.1776C86.1248 78.2932 84.9777 78.7802 84.0525 79.572C83.1272 80.3637 82.4689 81.4218 82.1673 82.6016C80.5178 89.3072 77.6549 104.431 78.1099 127.474L107.34 127.948C107.94 123.84 107.466 104.791 112.396 85.5657C112.59 84.9032 112.646 84.2079 112.561 83.5228C112.476 82.8377 112.252 82.1773 111.902 81.5822C111.552 80.9871 111.084 80.47 110.526 80.0628C109.969 79.6555 109.334 79.3667 108.661 79.2141Z" fill="#263238"/>
<path d="M91.0576 83.3346L91.8287 85.515C91.8667 85.6212 91.9324 85.7153 92.0191 85.7876C92.1058 85.8598 92.2103 85.9075 92.3216 85.9258L93.4339 86.0964C93.635 86.1254 93.84 86.0853 94.0154 85.9826L96.1326 84.7186L93.9711 82.7405L91.0576 83.3346Z" fill="#828282"/>
<path d="M93.5358 85.4329C93.1263 85.2634 92.6795 85.2046 92.2402 85.2622C90.9382 87.5058 88.8084 94.066 88.208 96.9921C89.9902 102.983 90.7929 103.641 90.7929 103.641L93.3841 96.7646C93.3841 96.7646 93.0428 89.5219 93.5358 85.4329Z" fill="#828282"/>
<path d="M104.365 64.6086C103.183 68.5397 101.672 75.795 104.188 78.6706C101.805 80.6614 98.7273 82.943 93.981 82.7597C89.2347 82.5764 90.3849 79.3722 91.8069 77.7479C96.3573 77.0148 96.5722 73.7031 96.1108 70.5431L104.365 64.6086Z" fill="#FDCE98"/>
<path d="M105.436 78.4367C105.12 78.2583 104.788 78.1102 104.444 77.9943C104.359 77.9631 104.266 77.9604 104.179 77.9866C104.093 78.0129 104.017 78.0665 103.964 78.1396C103.407 78.8664 101.568 82.1781 93.9717 82.7595C95.0966 83.6064 96.4302 86.0143 96.9926 87.1835C99.369 86.2482 105.613 83.3915 105.645 78.8222C105.647 78.7452 105.629 78.669 105.592 78.6013C105.556 78.5336 105.502 78.4768 105.436 78.4367V78.4367Z" fill="white"/>
<path d="M91.8242 77.9308C91.8477 77.864 91.8541 77.7924 91.8428 77.7225C91.8315 77.6526 91.8029 77.5867 91.7595 77.5307C91.7161 77.4747 91.6594 77.4306 91.5945 77.4022C91.5296 77.3738 91.4587 77.3622 91.3882 77.3683C91.1245 77.394 90.8628 77.4362 90.6045 77.4947C90.5439 77.5107 90.4863 77.5363 90.4338 77.5705C89.8018 78.0445 86.111 82.2157 88.5378 86.1405C89.3152 85.2241 91.6978 83.189 93.973 82.7592C92.0138 81.6027 91.2112 79.7383 91.8242 77.9308Z" fill="white"/>
<path opacity="0.2" d="M101.002 67.0288L96.1162 70.5427C96.2373 71.28 96.2902 72.0268 96.2742 72.7737C97.9996 72.6536 100.515 70.9598 100.875 69.1902C101.046 68.4831 101.089 67.7511 101.002 67.0288V67.0288Z" fill="black"/>
<path d="M108.229 59.6091C106.484 64.8421 105.701 67.9831 102.357 70.1383C97.3015 73.3741 91.4744 69.5442 91.6514 63.9826C91.8031 58.9708 94.6281 51.2478 100.316 50.2429C106.004 49.238 109.967 54.3699 108.229 59.6091Z" fill="#FDCE98"/>
<path d="M106.226 63.2877L103.11 62.0237C103.11 62.0237 106.839 57.9347 107.054 55.4572C101.271 54.5724 93.2197 54.7431 96.5566 49.3458C98.8065 45.7118 101.448 45.7181 106.334 47.3803C114.347 50.1105 113.286 57.1068 111.478 61.0947C109.671 65.0826 106.226 63.2877 106.226 63.2877Z" fill="#263238"/>
<path d="M107.669 63.2688C107.629 63.2676 107.591 63.2519 107.562 63.2246C106.098 61.8688 104.379 60.8182 102.506 60.1341C102.465 60.1197 102.431 60.0897 102.412 60.0507C102.393 60.0116 102.39 59.9666 102.404 59.9255C102.411 59.9054 102.421 59.8869 102.435 59.8709C102.449 59.8549 102.465 59.8418 102.484 59.8324C102.503 59.8229 102.524 59.8174 102.545 59.816C102.566 59.8146 102.587 59.8175 102.607 59.8244C104.525 60.524 106.284 61.5982 107.783 62.9844C107.812 63.015 107.829 63.0558 107.829 63.0982C107.829 63.1406 107.812 63.1813 107.783 63.2119C107.754 63.2448 107.713 63.2652 107.669 63.2688Z" fill="white"/>
<path d="M96.2673 64.7789C96.7499 64.9092 97.2536 64.9428 97.7493 64.8777C98.2449 64.8126 98.7229 64.6502 99.1555 64.3997C99.1825 64.3786 99.2015 64.349 99.2096 64.3157C99.2176 64.2825 99.2141 64.2475 99.1998 64.2164C99.1751 64.1928 99.1422 64.1797 99.1081 64.1797C99.074 64.1797 99.0412 64.1928 99.0165 64.2164C98.5373 64.4831 98.0037 64.637 97.4562 64.6666C96.9086 64.6961 96.3615 64.6006 95.8565 64.387C95.8237 64.374 95.7871 64.3739 95.7543 64.3868C95.7214 64.3997 95.6947 64.4247 95.6795 64.4566C95.6721 64.4719 95.6679 64.4885 95.6671 64.5055C95.6663 64.5224 95.669 64.5394 95.6749 64.5553C95.6808 64.5712 95.6898 64.5858 95.7015 64.5982C95.7131 64.6105 95.7272 64.6204 95.7427 64.6272C95.9146 64.6875 96.0897 64.7381 96.2673 64.7789V64.7789Z" fill="#263238"/>
<path d="M108.526 65.765C107.552 66.7566 106.237 67.3416 104.848 67.4019C103.034 67.4462 102.661 65.7271 103.584 64.2419C104.437 62.9147 106.416 61.2842 108.008 61.9414C109.601 62.5987 109.727 64.5326 108.526 65.765Z" fill="#FDCE98"/>
<path d="M93.6616 181.768C94.2936 154.258 101.195 127.834 101.195 127.834L78.3672 127.467C78.3672 127.467 79.7639 167.201 80.1621 183.848C80.5729 201.152 109.177 240.45 109.177 240.45L117.008 235.274C117.008 235.274 94.2746 203.484 93.6616 181.768Z" fill="#828282"/>
<g style="mix-blend-mode:multiply" opacity="0.2">
<path d="M95.7671 142.97C88.992 151.875 91.3936 168.623 93.6941 180.454C94.2072 167.372 95.72 154.349 98.2192 141.498L95.7671 142.97Z" fill="black"/>
</g>
<path d="M108.824 240.949L118.133 234.793L116.117 231.911L106.327 238.143L108.824 240.949Z" fill="#263238"/>
<path d="M100.158 59.1164C100.038 59.5461 99.7223 59.8495 99.4442 59.7863C99.1661 59.7231 99.0334 59.3313 99.1472 58.8952C99.2609 58.4591 99.5832 58.1621 99.8613 58.2253C100.139 58.2885 100.272 58.6866 100.158 59.1164Z" fill="#263238"/>
<path d="M95.2194 58.1999C95.1056 58.6296 94.7833 58.933 94.5052 58.8698C94.2272 58.8066 94.1008 58.4148 94.2145 57.9787C94.3283 57.5426 94.6506 57.2456 94.9287 57.3088C95.2068 57.372 95.3395 57.7891 95.2194 58.1999Z" fill="#263238"/>
<path d="M96.5707 58.7056C95.6855 59.7741 94.6659 60.7237 93.5371 61.5306C94.0933 62.2764 95.4647 62.2258 95.4647 62.2258L96.5707 58.7056Z" fill="#630F0F"/>
<path d="M102.175 57.9219C102.218 57.9368 102.265 57.9368 102.308 57.9219C102.371 57.894 102.421 57.8433 102.448 57.7799C102.475 57.7166 102.477 57.6454 102.453 57.5806C102.309 57.205 102.072 56.8716 101.765 56.611C101.458 56.3505 101.091 56.171 100.696 56.0891C100.627 56.0814 100.558 56.0999 100.502 56.1408C100.446 56.1817 100.407 56.2422 100.393 56.3103C100.385 56.3432 100.383 56.3776 100.389 56.411C100.395 56.4444 100.408 56.4762 100.427 56.5043C100.446 56.5324 100.471 56.5561 100.5 56.5738C100.529 56.5916 100.562 56.603 100.595 56.6074V56.6074C100.905 56.6734 101.194 56.8162 101.435 57.0227C101.676 57.2292 101.861 57.4927 101.973 57.7892C101.991 57.8281 102.019 57.8612 102.055 57.8847C102.091 57.9081 102.133 57.921 102.175 57.9219V57.9219Z" fill="#263238"/>
<path d="M93.3343 55.7037C93.3724 55.7236 93.4146 55.734 93.4576 55.734C93.5005 55.734 93.5428 55.7236 93.5808 55.7037C93.8474 55.501 94.1577 55.3635 94.4869 55.3021C94.8161 55.2406 95.1551 55.2569 95.4768 55.3498C95.5432 55.3732 95.616 55.3705 95.6805 55.3424C95.745 55.3142 95.7964 55.2627 95.8244 55.1981C95.8377 55.1675 95.8446 55.1345 95.8448 55.1011C95.8449 55.0678 95.8383 55.0347 95.8253 55.004C95.8123 54.9733 95.7932 54.9455 95.7691 54.9224C95.7451 54.8992 95.7166 54.8812 95.6854 54.8695C95.2863 54.7489 94.8644 54.7239 94.4538 54.7963C94.0433 54.8688 93.6555 55.0367 93.3217 55.2866C93.2929 55.3051 93.2681 55.3292 93.2487 55.3574C93.2293 55.3856 93.2157 55.4174 93.2087 55.4509C93.2016 55.4844 93.2013 55.5189 93.2077 55.5526C93.214 55.5862 93.227 55.6182 93.2459 55.6468C93.2696 55.6735 93.3002 55.6932 93.3343 55.7037V55.7037Z" fill="#263238"/>
<path d="M114.456 245.575C114.468 245.554 114.475 245.53 114.475 245.506C114.475 245.481 114.468 245.457 114.456 245.436C114.445 245.413 114.426 245.394 114.404 245.382C114.381 245.369 114.355 245.364 114.33 245.367C114.051 245.367 111.631 245.676 111.258 246.359C111.222 246.423 111.203 246.494 111.203 246.567C111.203 246.641 111.222 246.712 111.258 246.776V246.776C111.304 246.881 111.375 246.972 111.466 247.042C111.557 247.111 111.663 247.157 111.776 247.174C112.554 247.288 113.773 246.232 114.431 245.588L114.456 245.575ZM111.53 246.441C111.808 246.087 113.047 245.809 113.988 245.676C113.066 246.517 112.282 246.978 111.846 246.94C111.771 246.928 111.701 246.897 111.642 246.851C111.582 246.804 111.535 246.744 111.505 246.675C111.489 246.65 111.48 246.622 111.48 246.593C111.48 246.564 111.489 246.535 111.505 246.511C111.504 246.485 111.513 246.46 111.53 246.441V246.441Z" fill="#828282"/>
<path d="M114.456 245.575C114.456 245.575 114.456 245.575 114.456 245.544C114.468 245.524 114.475 245.501 114.475 245.477C114.475 245.454 114.468 245.431 114.456 245.411C114.418 245.36 113.552 244.191 112.674 244.096C112.545 244.082 112.416 244.094 112.292 244.131C112.168 244.168 112.053 244.229 111.953 244.311C111.675 244.539 111.675 244.754 111.732 244.886C111.96 245.468 113.628 245.74 114.368 245.626C114.385 245.624 114.402 245.619 114.417 245.61C114.432 245.601 114.446 245.589 114.456 245.575V245.575ZM112.016 244.615C112.043 244.576 112.075 244.542 112.111 244.513V244.513C112.184 244.452 112.269 244.407 112.36 244.38C112.452 244.354 112.548 244.348 112.642 244.362C113.228 244.537 113.742 244.896 114.108 245.386C113.331 245.424 112.111 245.127 111.972 244.754C111.966 244.76 111.941 244.703 112.016 244.615V244.615Z" fill="#828282"/>
<path d="M110.22 249.311L104.747 249.228L103.755 236.531L109.222 236.62L110.22 249.311Z" fill="#7F3E3B"/>
<path d="M104.513 248.59L110.467 248.685C110.518 248.684 110.569 248.693 110.617 248.712C110.665 248.731 110.709 248.759 110.746 248.795C110.783 248.831 110.812 248.874 110.833 248.921C110.853 248.968 110.864 249.019 110.865 249.07L111.074 253.949C111.072 254.204 110.97 254.447 110.79 254.627C110.611 254.807 110.367 254.908 110.113 254.91C107.97 254.834 107.307 254.663 104.608 254.619C101.448 254.569 98.996 254.701 95.2925 254.619C93.0489 254.588 92.8403 252.319 93.8136 252.091C96.8915 251.459 101.669 250.246 103.117 248.931C103.525 248.652 104.022 248.531 104.513 248.59V248.59Z" fill="#263238"/>
<path opacity="0.2" d="M103.755 236.538L104.267 243.079L109.74 243.167L109.228 236.626L103.755 236.538Z" fill="black"/>
<path d="M109.337 181.389C109.021 156.741 110.601 137.522 107.365 127.935L88.0508 127.625C88.0508 127.625 94.8385 166.057 96.7534 182.577C98.7379 199.749 102.005 240.165 102.005 240.165L110.822 240.285C110.822 240.285 112.939 200.621 109.337 181.389Z" fill="#828282"/>
<path d="M100.646 241.979L111.649 242.156L112.496 238.585L100.248 238.206L100.646 241.979Z" fill="#263238"/>
<path d="M104.197 248.767C104.22 248.758 104.24 248.743 104.255 248.722C104.27 248.702 104.278 248.678 104.279 248.653C104.285 248.627 104.281 248.6 104.27 248.576C104.258 248.552 104.239 248.532 104.216 248.52C103.975 248.4 101.833 247.326 101.169 247.718C101.105 247.754 101.051 247.805 101.012 247.866C100.972 247.928 100.948 247.998 100.942 248.072V248.072C100.925 248.187 100.937 248.305 100.975 248.415C101.014 248.525 101.078 248.624 101.163 248.704C101.745 249.228 103.299 248.969 104.178 248.767H104.197ZM101.334 247.926C101.745 247.775 102.907 248.204 103.754 248.596C102.553 248.83 101.662 248.805 101.34 248.508C101.284 248.456 101.241 248.39 101.217 248.317C101.192 248.244 101.187 248.166 101.201 248.091C101.2 248.062 101.208 248.034 101.222 248.009C101.237 247.985 101.258 247.965 101.283 247.951L101.334 247.926Z" fill="#828282"/>
<path d="M104.198 248.767C104.219 248.756 104.238 248.739 104.252 248.72C104.266 248.7 104.276 248.677 104.28 248.653C104.28 248.59 104.172 247.098 103.502 246.542C103.409 246.457 103.297 246.394 103.175 246.358C103.054 246.322 102.926 246.314 102.801 246.334V246.334C102.447 246.378 102.34 246.561 102.308 246.713C102.194 247.345 103.452 248.502 104.097 248.786C104.114 248.79 104.132 248.791 104.149 248.788C104.167 248.785 104.183 248.777 104.198 248.767V248.767ZM102.694 246.606C102.736 246.589 102.781 246.578 102.826 246.574V246.574C102.917 246.56 103.011 246.567 103.099 246.593C103.187 246.619 103.269 246.665 103.338 246.726C103.731 247.205 103.963 247.795 104.002 248.413C103.37 248.021 102.498 247.105 102.567 246.726C102.575 246.696 102.592 246.669 102.614 246.648C102.636 246.627 102.664 246.612 102.694 246.606Z" fill="#828282"/>
<path d="M104.596 78.4684C101.405 82.4563 93.0181 87.9484 90.7998 97.5295C88.3856 87.9863 91.6467 77.7479 91.6467 77.7479C89.8645 77.6152 86.1673 77.4509 83.5697 78.1777C82.7415 78.4163 81.9939 78.8759 81.4071 79.5072C80.8204 80.1385 80.4166 80.9177 80.2391 81.7611C78.1636 92.1922 77.1137 102.801 77.1044 113.437C77.0538 133.503 75.4043 164.559 75.4043 164.559C75.4043 164.559 95.7294 165.748 111.757 164.022C111.826 148.684 108.635 122.645 109.463 115.839C110.531 107.085 112.964 89.9961 114.171 82.8861C114.358 81.8981 114.175 80.8759 113.658 80.0137C113.141 79.1515 112.325 78.5094 111.365 78.2093C109.507 77.7393 107.577 77.6257 105.677 77.8743C105.253 77.9226 104.865 78.136 104.596 78.4684V78.4684Z" fill="#828282"/>
<path opacity="0.7" d="M104.59 78.4684C101.398 82.4627 93.0118 87.9484 90.7998 97.5295C88.3856 87.9863 91.6467 77.7479 91.6467 77.7479C89.8645 77.6152 86.1673 77.4509 83.5697 78.1777C82.7415 78.4163 81.9939 78.8759 81.4071 79.5072C80.8204 80.1385 80.4166 80.9177 80.2391 81.7611C78.1636 92.1922 77.1137 102.801 77.1044 113.437C77.0538 133.503 75.4043 164.559 75.4043 164.559C75.4043 164.559 95.7294 165.748 111.757 164.022C111.826 148.684 108.635 122.645 109.463 115.839C110.531 107.079 112.964 89.9898 114.171 82.8861C114.365 81.93 114.206 80.9361 113.724 80.088C113.242 79.2399 112.469 78.595 111.548 78.2725C109.637 77.7625 107.645 77.6294 105.683 77.8807C105.256 77.9248 104.863 78.136 104.59 78.4684Z" fill="white"/>
<path opacity="0.5" d="M89.7437 162.701C88.783 143.185 90.224 102.339 90.4578 98.686H90.7991C90.5653 102.333 89.1243 143.154 90.0849 162.663L89.7437 162.701Z" fill="#828282"/>
<path d="M89.194 84.9653C87.178 88.4918 85.244 92.2206 83.506 95.9052C82.6339 97.757 81.8186 99.615 81.1171 101.454C80.7632 102.371 80.4472 103.281 80.1754 104.153C79.9326 104.904 79.7509 105.673 79.6319 106.453V106.504C79.6399 106.413 79.6399 106.322 79.6319 106.232C79.6226 106.02 79.5973 105.809 79.556 105.6C79.5019 105.384 79.43 105.172 79.3412 104.968C79.257 104.787 79.1577 104.614 79.0441 104.45C78.8343 104.134 78.5528 103.872 78.2225 103.685C78.0203 103.597 78.2731 103.723 78.5638 103.774C79.3698 103.936 80.1879 104.031 81.0096 104.058C82.9727 104.139 84.9387 104.12 86.8999 104.001C88.916 103.875 90.9636 103.691 93.005 103.47C94.0288 103.356 95.0527 103.224 96.0702 103.085L97.5996 102.876L98.358 102.756L98.7372 102.699L98.9205 102.668H99.0153H99.0722H98.9774L98.7941 102.706L100.627 111.13L100.418 111.168H100.298H100.216H100.109H99.9001L99.4956 111.212L98.6867 111.301L97.0751 111.471L93.8582 111.781C91.7031 111.983 89.548 112.154 87.3549 112.261C85.1619 112.369 82.9309 112.47 80.6052 112.369C79.3188 112.328 78.0378 112.182 76.7752 111.933C75.8549 111.75 74.9654 111.437 74.1335 111.004C73.3312 110.579 72.6388 109.973 72.1111 109.234C71.7085 108.665 71.4267 108.02 71.2832 107.338C71.2044 106.994 71.1642 106.642 71.1631 106.289C71.1631 106.137 71.1631 105.91 71.1631 105.815V105.676C71.296 104.351 71.5499 103.042 71.9215 101.764C72.2438 100.614 72.5977 99.5266 72.9706 98.4648C73.729 96.3476 74.538 94.3189 75.3722 92.3091C76.2064 90.2994 77.0912 88.3338 77.976 86.3746C78.8608 84.4154 79.7709 82.4878 80.7189 80.4907L89.194 84.9653Z" fill="#828282"/>
<g opacity="0.7">
<path opacity="0.7" d="M89.194 84.9653C87.178 88.4918 85.244 92.2206 83.506 95.9052C82.6339 97.757 81.8186 99.615 81.1171 101.454C80.7632 102.371 80.4472 103.281 80.1754 104.153C79.9326 104.904 79.7509 105.673 79.6319 106.453V106.504C79.6399 106.413 79.6399 106.322 79.6319 106.232C79.6226 106.02 79.5973 105.809 79.556 105.6C79.5019 105.384 79.43 105.172 79.3412 104.968C79.257 104.787 79.1577 104.614 79.0441 104.45C78.8343 104.134 78.5528 103.872 78.2225 103.685C78.0203 103.597 78.2731 103.723 78.5638 103.774C79.3698 103.936 80.1879 104.031 81.0096 104.058C82.9727 104.139 84.9387 104.12 86.8999 104.001C88.916 103.875 90.9636 103.691 93.005 103.47C94.0288 103.356 95.0527 103.224 96.0702 103.085L97.5996 102.876L98.358 102.756L98.7372 102.699L98.9205 102.668H99.0153H99.0722H98.9774L98.7941 102.706L100.627 111.13L100.418 111.168H100.298H100.216H100.109H99.9001L99.4956 111.212L98.6867 111.301L97.0751 111.471L93.8582 111.781C91.7031 111.983 89.548 112.154 87.3549 112.261C85.1619 112.369 82.9309 112.47 80.6052 112.369C79.3188 112.328 78.0378 112.182 76.7752 111.933C75.8549 111.75 74.9654 111.437 74.1335 111.004C73.3312 110.579 72.6388 109.973 72.1111 109.234C71.7085 108.665 71.4267 108.02 71.2832 107.338C71.2044 106.994 71.1642 106.642 71.1631 106.289C71.1631 106.137 71.1631 105.91 71.1631 105.815V105.676C71.296 104.351 71.5499 103.042 71.9215 101.764C72.2438 100.614 72.5977 99.5266 72.9706 98.4648C73.729 96.3476 74.538 94.3189 75.3722 92.3091C76.2064 90.2994 77.0912 88.3338 77.976 86.3746C78.8608 84.4154 79.7709 82.4878 80.7189 80.4907L89.194 84.9653Z" fill="white"/>
</g>
<path d="M83.4994 103.508L79.3725 99.5645L76.5664 105.429C76.5664 105.429 80.6997 108.589 82.5704 106.693L83.4994 103.508Z" fill="#FDCE98"/>
<path d="M98.5918 105.518L102.384 101.239L105.658 106.864C105.658 106.864 101.802 110.34 99.7926 108.634L98.5918 105.518Z" fill="#FDCE98"/>
<path d="M108.072 100.727L108.881 102.921C109.035 103.358 109.036 103.835 108.885 104.273C108.733 104.711 108.438 105.086 108.047 105.335L105.67 106.864L102.396 101.239L105.594 99.7479C105.819 99.6355 106.065 99.5717 106.316 99.5608C106.568 99.5498 106.818 99.592 107.052 99.6844C107.286 99.7768 107.497 99.9175 107.673 100.097C107.849 100.277 107.985 100.492 108.072 100.727Z" fill="#FDCE98"/>
<path d="M73.6676 99.5011L73.0356 101.745C72.9201 102.193 72.9596 102.668 73.1477 103.091C73.3359 103.515 73.6617 103.862 74.0721 104.077L76.6001 105.41L79.4062 99.5454L76.0882 98.3193C75.853 98.2203 75.5994 98.1728 75.3444 98.1799C75.0894 98.187 74.8388 98.2486 74.6095 98.3605C74.3803 98.4725 74.1776 98.6322 74.0151 98.8289C73.8527 99.0256 73.7342 99.2548 73.6676 99.5011V99.5011Z" fill="#FDCE98"/>
<path d="M114.177 81.9697C114.405 83.1958 114.582 84.2892 114.765 85.4457C114.948 86.6023 115.106 87.7336 115.245 88.8838C115.543 91.1843 115.789 93.4974 115.909 95.8801C116.065 98.366 116.013 100.861 115.751 103.338C115.587 104.857 115.211 106.347 114.632 107.762C114.452 108.197 114.241 108.62 114 109.026C113.849 109.253 113.716 109.468 113.533 109.702L113.4 109.873C113.348 109.946 113.291 110.016 113.229 110.081C113.055 110.283 112.867 110.473 112.667 110.65C112.102 111.133 111.462 111.52 110.771 111.794C110.315 111.979 109.846 112.131 109.368 112.249C107.991 112.551 106.587 112.717 105.178 112.742C103.914 112.78 102.719 112.742 101.537 112.704C99.1737 112.609 96.8859 112.382 94.5854 112.154C92.2849 111.927 90.0603 111.636 87.8167 111.32C85.5731 111.004 83.3611 110.688 81.0732 110.328L82.6343 101.846C84.7136 102.276 86.894 102.642 89.0364 102.99C91.1789 103.338 93.3404 103.622 95.4828 103.856C97.6253 104.09 99.7615 104.26 101.841 104.349C102.871 104.38 103.895 104.393 104.855 104.349C105.667 104.335 106.476 104.242 107.27 104.071C107.371 104.071 107.478 104.001 107.447 104.001C107.285 104.077 107.136 104.177 107.004 104.298C106.906 104.381 106.815 104.472 106.732 104.57C106.676 104.646 106.732 104.608 106.688 104.621C106.688 104.621 106.732 104.526 106.77 104.418C106.992 103.751 107.13 103.059 107.181 102.358C107.331 100.411 107.299 98.4536 107.086 96.5121C106.89 94.4581 106.587 92.3661 106.214 90.2742C106.018 89.2314 105.803 88.1886 105.582 87.1458C105.361 86.103 105.102 85.0349 104.849 84.0932L114.177 81.9697Z" fill="#828282"/>
<g opacity="0.7">
<path opacity="0.7" d="M114.177 81.9697C114.405 83.1958 114.582 84.2892 114.765 85.4457C114.948 86.6023 115.106 87.7336 115.245 88.8838C115.543 91.1843 115.789 93.4974 115.909 95.8801C116.065 98.366 116.013 100.861 115.751 103.338C115.587 104.857 115.211 106.347 114.632 107.762C114.452 108.197 114.241 108.62 114 109.026C113.849 109.253 113.716 109.468 113.533 109.702L113.4 109.873C113.348 109.946 113.291 110.016 113.229 110.081C113.055 110.283 112.867 110.473 112.667 110.65C112.102 111.133 111.462 111.52 110.771 111.794C110.315 111.979 109.846 112.131 109.368 112.249C107.991 112.551 106.587 112.717 105.178 112.742C103.914 112.78 102.719 112.742 101.537 112.704C99.1737 112.609 96.8859 112.382 94.5854 112.154C92.2849 111.927 90.0603 111.636 87.8167 111.32C85.5731 111.004 83.3611 110.688 81.0732 110.328L82.6343 101.846C84.7136 102.276 86.894 102.642 89.0364 102.99C91.1789 103.338 93.3404 103.622 95.4828 103.856C97.6253 104.09 99.7615 104.26 101.841 104.349C102.871 104.38 103.895 104.393 104.855 104.349C105.667 104.335 106.476 104.242 107.27 104.071C107.371 104.071 107.478 104.001 107.447 104.001C107.285 104.077 107.136 104.177 107.004 104.298C106.906 104.381 106.815 104.472 106.732 104.57C106.676 104.646 106.732 104.608 106.688 104.621C106.688 104.621 106.732 104.526 106.77 104.418C106.992 103.751 107.13 103.059 107.181 102.358C107.331 100.411 107.299 98.4536 107.086 96.5121C106.89 94.4581 106.587 92.3661 106.214 90.2742C106.018 89.2314 105.803 88.1886 105.582 87.1458C105.361 86.103 105.102 85.0349 104.849 84.0932L114.177 81.9697Z" fill="white"/>
</g>
<path d="M99.8942 127.088L109.374 133.996C109.374 133.996 110.449 143.273 105.121 144.183C99.793 145.094 98.7439 133.774 99.8942 127.088Z" fill="#828282"/>
<path opacity="0.5" d="M99.8942 127.088L109.374 133.996C109.374 133.996 110.449 143.273 105.121 144.183C99.793 145.094 98.7439 133.774 99.8942 127.088Z" fill="white"/>
<path d="M79.3794 127.088L75.9097 133.996C75.9097 133.996 74.8037 143.273 76.3585 144.183C77.9132 145.094 79.1709 133.774 79.3794 127.088Z" fill="#828282"/>
<path opacity="0.5" d="M79.3794 127.088L75.9097 133.996C75.9097 133.996 74.8037 143.273 76.3585 144.183C77.9132 145.094 79.1709 133.774 79.3794 127.088Z" fill="white"/>
<path d="M92.9039 61.246C92.7891 61.2459 92.6746 61.2332 92.5626 61.2081C92.342 61.1534 92.1355 61.0524 91.9568 60.9118C91.7781 60.7713 91.6313 60.5944 91.5261 60.3928C91.2885 59.8642 91.1583 59.2937 91.1431 58.7143C91.1279 58.1349 91.228 57.5583 91.4376 57.018C92.0696 55.0019 93.6433 53.5988 94.9073 53.858C95.1275 53.9138 95.3335 54.0153 95.512 54.1557C95.6906 54.2961 95.8376 54.4724 95.9438 54.6732C96.1814 55.2019 96.3116 55.7724 96.3268 56.3518C96.342 56.9312 96.2419 57.5078 96.0323 58.0481C95.4319 59.9188 94.092 61.246 92.9039 61.246ZM94.5597 53.997C93.4411 53.997 92.1581 55.261 91.5893 57.0496C91.1725 58.1024 91.1907 59.2776 91.6399 60.317C91.7347 60.4994 91.867 60.6596 92.0283 60.787C92.1895 60.9145 92.3759 61.0063 92.5752 61.0564C93.7634 61.3345 95.2296 59.9757 95.8553 58.0418C96.2555 56.9902 96.226 55.8234 95.7732 54.7933C95.6804 54.6107 95.5494 54.4501 95.3891 54.3225C95.2288 54.1949 95.043 54.1033 94.8441 54.0539C94.7518 54.0241 94.6564 54.005 94.5597 53.997Z" fill="white"/>
<path d="M99.6339 62.6997C99.4746 62.6985 99.3158 62.6816 99.1599 62.6492C98.7756 62.5451 98.4213 62.3518 98.1259 62.0849C97.8304 61.818 97.6022 61.4852 97.4598 61.1134C97.0962 60.23 97.0232 59.2539 97.2512 58.3263C97.7126 56.2912 99.3242 54.9198 100.841 55.2611C101.225 55.3651 101.58 55.5584 101.875 55.8253C102.17 56.0922 102.399 56.4251 102.541 56.7968C102.902 57.6787 102.975 58.6519 102.75 59.5776C102.333 61.4041 100.993 62.6997 99.6339 62.6997ZM100.367 55.3685C99.103 55.3685 97.8074 56.6325 97.4092 58.3642C97.1899 59.2578 97.2585 60.1979 97.6052 61.0502C97.7366 61.3999 97.9498 61.7131 98.2268 61.9638C98.5038 62.2144 98.8367 62.3952 99.1978 62.4912C100.62 62.8198 102.143 61.4926 102.592 59.546C102.811 58.6524 102.742 57.7124 102.396 56.86C102.263 56.5109 102.05 56.1982 101.773 55.9476C101.496 55.6971 101.164 55.516 100.803 55.4191C100.66 55.3867 100.514 55.3697 100.367 55.3685V55.3685Z" fill="white"/>
<path d="M97.2201 59.2805C97.1807 59.2823 97.1422 59.2687 97.1126 59.2426C96.9368 59.0724 96.7255 58.9434 96.4938 58.8647C96.2621 58.786 96.0159 58.7597 95.7728 58.7875C95.7309 58.7959 95.6874 58.7873 95.6518 58.7636C95.6163 58.7399 95.5916 58.703 95.5832 58.6611C95.5748 58.6192 95.5834 58.5757 95.6071 58.5401C95.6308 58.5046 95.6677 58.4799 95.7096 58.4715C96.0008 58.4335 96.2969 58.4615 96.5759 58.5534C96.8548 58.6453 97.1096 58.7988 97.3212 59.0024C97.3365 59.0171 97.3487 59.0348 97.357 59.0544C97.3653 59.0739 97.3696 59.0949 97.3696 59.1162C97.3696 59.1374 97.3653 59.1584 97.357 59.178C97.3487 59.1975 97.3365 59.2152 97.3212 59.2299C97.2942 59.2578 97.2586 59.2756 97.2201 59.2805V59.2805Z" fill="white"/>
<path d="M98.9903 100.133L98.6427 99.3561C104.027 96.9798 107.567 92.1766 107.017 89.6296C106.726 88.2835 105.31 87.9991 104.154 88.018C98.5985 88.0686 96.7404 93.567 95.2426 97.991C95.053 98.5598 94.8634 99.1033 94.6801 99.6089L93.8838 99.3182C94.0607 98.8189 94.244 98.2817 94.4399 97.7192C95.9378 93.2952 97.9918 87.2217 104.147 87.1711H104.217C106.947 87.1711 107.668 88.5931 107.851 89.4463C108.477 92.3409 104.824 97.5296 98.9903 100.133Z" fill="#263238"/>
<path d="M97.6571 99.1914C97.2273 100.127 97.4043 101.119 98.0426 101.41C98.6809 101.7 99.5531 101.182 99.9765 100.247C100.4 99.3115 100.229 98.3192 99.591 98.0285C98.9527 97.7378 98.0805 98.2371 97.6571 99.1914Z" fill="#263238"/>
<path d="M92.8485 99.1914C92.4187 100.127 92.5957 101.119 93.234 101.41C93.8723 101.7 94.7445 101.182 95.1679 100.247C95.5914 99.3115 95.4271 98.3192 94.7824 98.0285C94.1378 97.7378 93.2783 98.2371 92.8485 99.1914Z" fill="#263238"/>
<path d="M84.8489 89.9265C84.96 88.7449 84.1147 87.6992 82.961 87.5907C81.8072 87.4823 80.7819 88.3522 80.6708 89.5337C80.5598 90.7153 81.405 91.761 82.5588 91.8695C83.7125 91.9779 84.7378 91.108 84.8489 89.9265Z" fill="#263238"/>
<path d="M104.566 88.0113C104.515 88.0202 104.464 88.0202 104.414 88.0113C104.361 87.9917 104.313 87.9618 104.273 87.9235C104.232 87.8851 104.199 87.839 104.176 87.7879C104.153 87.7367 104.14 87.6815 104.139 87.6255C104.138 87.5695 104.147 87.5137 104.167 87.4615C104.167 87.4299 105.514 83.7832 103.396 78.3164C103.376 78.2645 103.366 78.2092 103.367 78.1535C103.368 78.0978 103.38 78.0428 103.403 77.9918C103.425 77.9407 103.457 77.8945 103.497 77.8559C103.537 77.8173 103.585 77.7869 103.637 77.7666C103.688 77.7462 103.744 77.7363 103.8 77.7374C103.855 77.7384 103.91 77.7505 103.961 77.7728C104.012 77.7951 104.058 77.8272 104.097 77.8674C104.136 77.9075 104.166 77.9549 104.186 78.0067C106.436 83.8022 105.021 87.6068 104.957 87.7648C104.924 87.84 104.869 87.9035 104.799 87.9474C104.729 87.9913 104.648 88.0135 104.566 88.0113Z" fill="#263238"/>
<path d="M81.9384 89.5092H81.8499C81.7406 89.4835 81.6453 89.4166 81.5841 89.3224C81.5229 89.2282 81.5004 89.114 81.5213 89.0036C81.6034 88.6055 83.6574 79.195 91.5511 77.3369C91.6609 77.3117 91.7762 77.3313 91.8716 77.3911C91.967 77.451 92.0347 77.5463 92.0599 77.6561C92.085 77.7658 92.0655 77.8811 92.0057 77.9765C91.9458 78.0719 91.8505 78.1397 91.7407 78.1648C84.3779 79.9028 82.3745 89.0858 82.3555 89.1743C82.3341 89.269 82.2812 89.3537 82.2054 89.4145C82.1297 89.4754 82.0355 89.5087 81.9384 89.5092Z" fill="#263238"/>
<path d="M155.081 252.325L149.273 252.23L148.679 238.737L154.493 238.825L155.081 252.325Z" fill="#FF8B7B"/>
<path d="M149.229 251.56L155.549 251.655C155.66 251.653 155.769 251.695 155.85 251.772C155.931 251.849 155.98 251.954 155.985 252.066L156.364 257.255C156.368 257.387 156.346 257.519 156.298 257.643C156.249 257.767 156.177 257.88 156.084 257.975C155.992 258.07 155.881 258.145 155.758 258.196C155.636 258.247 155.504 258.273 155.372 258.272C153.09 258.196 149.81 258.013 146.934 257.969C143.572 257.912 143.895 258.051 139.951 257.969C137.568 257.931 137.265 255.504 138.295 255.302C142.991 254.379 143.458 254.328 147.775 251.965C148.216 251.705 148.717 251.566 149.229 251.56V251.56Z" fill="#263238"/>
<path opacity="0.2" d="M148.685 238.737L148.988 245.695L154.802 245.784L154.499 238.832L148.685 238.737Z" fill="black"/>
<path d="M169.637 71.4275C162.179 69.7843 154.608 69.6263 146.923 70.3279C145.647 70.4458 144.44 70.9659 143.478 71.8132C142.516 72.6605 141.848 73.7912 141.57 75.0426C140.028 82.1715 137.468 98.2496 138.682 122.74L169.789 123.245C170.294 118.872 169.157 98.5972 173.84 78.171C174.014 77.4519 174.043 76.7055 173.925 75.9752C173.807 75.2449 173.544 74.5454 173.153 73.9176C172.762 73.2897 172.249 72.7462 171.646 72.3187C171.042 71.8911 170.359 71.5882 169.637 71.4275Z" fill="#1987FB"/>
<path d="M151.049 75.8074L151.934 78.1332C151.978 78.2469 152.052 78.347 152.147 78.4235C152.243 78.5 152.356 78.5502 152.477 78.5692L153.659 78.7462C153.877 78.7863 154.103 78.7434 154.291 78.6261L156.497 77.3052L154.146 75.2007L151.049 75.8074Z" fill="#263238"/>
<path d="M153.766 78.0445C153.331 77.8642 152.856 77.801 152.388 77.8613C151.067 80.2502 149.013 87.2275 148.47 90.3369C150.555 96.7075 151.434 97.4027 151.434 97.4027L153.962 90.0968C153.962 90.0968 153.355 82.3927 153.766 78.0445Z" fill="#263238"/>
<path d="M164.599 55.8931C163.468 60.0769 162.071 67.7936 164.858 70.8462C162.393 72.9634 159.17 75.3903 154.114 75.1943C149.058 74.9984 150.183 71.5919 151.643 69.8603C156.459 69.0829 156.585 65.5627 155.991 62.2067L164.599 55.8931Z" fill="#FF8B7B"/>
<path d="M166.216 70.6057C165.874 70.4136 165.514 70.2548 165.142 70.1317C165.053 70.0993 164.955 70.0966 164.864 70.1239C164.773 70.1512 164.693 70.2071 164.636 70.2834C164.068 71.0608 162.222 74.581 154.164 75.2004C155.384 76.0978 156.875 78.6637 157.514 79.8835C160.01 78.8912 166.558 75.826 166.444 70.9976C166.443 70.9182 166.421 70.8404 166.381 70.7718C166.342 70.7031 166.285 70.6459 166.216 70.6057V70.6057Z" fill="white"/>
<path d="M151.681 70.0686C151.711 69.9944 151.721 69.9137 151.711 69.8343C151.7 69.7549 151.669 69.6796 151.621 69.6158C151.572 69.552 151.508 69.502 151.434 69.4706C151.36 69.4391 151.28 69.4275 151.2 69.4366C150.922 69.4635 150.645 69.5078 150.372 69.5694C150.309 69.5863 150.249 69.6141 150.195 69.6515C149.563 70.1508 145.771 74.5938 148.451 78.765C149.247 77.7917 151.7 75.605 154.139 75.1689C152.003 73.9681 151.093 71.9899 151.681 70.0686Z" fill="white"/>
<path opacity="0.2" d="M161.097 58.4717L156.041 62.2068C156.192 62.9881 156.272 63.7812 156.281 64.5768C158.108 64.4504 160.705 62.6808 161.059 60.7848C161.215 60.0228 161.228 59.2384 161.097 58.4717V58.4717Z" fill="black"/>
<path d="M154.253 53.3648C151.295 54.3255 150.84 51.9934 151.447 49.6992C151.82 48.2709 151.302 47.3608 151.1 45.7935C150.752 43.2212 151.397 40.946 156.193 39.2775C162.412 37.1098 161.041 40.7627 161.287 42.2732C161.534 43.7837 158.949 44.6938 159.075 46.2485C159.178 47.8021 158.76 49.3456 157.886 50.6346C157.013 51.9236 155.734 52.8844 154.253 53.3648V53.3648Z" fill="#263238"/>
<path d="M168.555 50.5776C166.868 56.1455 166.16 59.4888 162.64 61.7766C157.369 65.221 151.049 61.1509 151.049 55.2607C151.049 49.9329 153.811 41.7169 159.821 40.6488C161.132 40.4012 162.485 40.4993 163.747 40.9334C165.009 41.3675 166.136 42.1226 167.017 43.1245C167.899 44.1264 168.504 45.3405 168.773 46.6473C169.043 47.9541 168.968 49.3086 168.555 50.5776V50.5776Z" fill="#FF8B7B"/>
<path d="M166.849 44.8202C163.847 44.2893 160.296 45.566 157.3 44.8202C154.924 44.1882 154.949 42.6272 155.297 41.0282C155.808 38.6709 157.768 37.8998 158.943 37.4637C160.119 37.0277 160.725 38.4939 162.35 37.3753C163.443 36.6169 167.614 36.4273 170.085 37.3753C172.556 38.3233 169.731 40.1118 171.052 40.9397C175.135 43.4677 172.537 45.8251 166.849 44.8202Z" fill="#263238"/>
<path opacity="0.3" d="M157.457 44.1756C156.396 41.755 157.514 38.5192 161.976 38.2095C158.064 39.385 157.457 44.1756 157.457 44.1756Z" fill="white"/>
<path d="M166.009 56.2152C163.481 55.817 163.626 52.9604 164.859 50.9822C166.034 49.0862 164.303 47.0386 164.176 45.6039C164.05 44.1693 165.39 42.7094 167.968 42.8294C170.547 42.9495 174.642 44.5864 174.712 46.4761C174.781 48.3658 172.139 48.1319 172.55 49.9584C173.454 54.0285 169.694 56.803 166.009 56.2152Z" fill="#263238"/>
<path opacity="0.3" d="M171.272 46.3499C170.204 48.2459 167.986 48.6567 165.11 46.3499C166.082 46.775 167.131 46.9945 168.191 46.9945C169.252 46.9945 170.301 46.775 171.272 46.3499V46.3499Z" fill="white"/>
<path d="M152.174 55.0904C151.017 56.3101 151.119 58.7623 151.182 59.9378C151.245 61.1133 152.243 63.0473 155.941 63.6034C159.638 64.1596 160.504 62.8513 160.681 61.6126C160.858 60.3739 160.681 56.8537 159.486 55.6781C158.292 54.5026 153.482 53.7063 152.174 55.0904Z" fill="#263238"/>
<path d="M154.581 56.8725C155.092 57.0131 155.626 57.0497 156.151 56.9802C156.677 56.9107 157.183 56.7366 157.64 56.468C157.663 56.4454 157.678 56.4153 157.681 56.383C157.685 56.3507 157.677 56.3182 157.659 56.2912C157.641 56.2641 157.614 56.2443 157.583 56.235C157.551 56.2258 157.518 56.2277 157.488 56.2405C156.978 56.53 156.408 56.6971 155.822 56.7289C155.237 56.7607 154.652 56.6563 154.113 56.4238C154.08 56.4088 154.042 56.4077 154.007 56.4208C153.973 56.4338 153.945 56.4599 153.93 56.4933C153.915 56.5268 153.914 56.5649 153.927 56.5993C153.94 56.6336 153.966 56.6614 154 56.6766C154.189 56.7541 154.383 56.8195 154.581 56.8725V56.8725Z" fill="#FF8B7B"/>
<path d="M169.067 57.1569C168.054 58.2142 166.669 58.8354 165.206 58.8886C163.31 58.9455 162.829 57.1127 163.79 55.539C164.662 54.1233 166.71 52.379 168.435 53.0931C170.16 53.8073 170.306 55.8171 169.067 57.1569Z" fill="#FF8B7B"/>
<path d="M154.758 180.498C155.517 151.237 162.974 123.138 162.974 123.138L138.725 122.746C138.725 122.746 140.077 165.002 140.444 182.704C140.829 201.108 146.58 244.318 146.58 244.318L156.427 244.469C156.427 244.469 155.334 203.585 154.758 180.498Z" fill="#263238"/>
<path opacity="0.2" d="M157.123 139.235C149.887 148.715 152.396 166.512 154.797 179.095C155.322 163.453 157.686 148.266 159.74 137.667L157.123 139.235Z" fill="black"/>
<path d="M145.942 244.526L157.641 244.709L157.565 240.917L145.393 240.513L145.942 244.526Z" fill="#263238"/>
<path d="M159.954 50.0533C159.84 50.5147 159.511 50.837 159.214 50.7738C158.917 50.7106 158.759 50.2872 158.873 49.8258C158.987 49.3644 159.309 49.0421 159.606 49.1053C159.903 49.1685 160.061 49.573 159.954 50.0533Z" fill="#263238"/>
<path d="M154.67 49.0801C154.562 49.5414 154.234 49.8574 153.93 49.7942C153.627 49.731 153.481 49.3076 153.589 48.8462C153.696 48.3849 154.031 48.0689 154.328 48.1321C154.625 48.1953 154.777 48.6187 154.67 49.0801Z" fill="#263238"/>
<path d="M156.105 49.8071C155.189 50.9431 154.127 51.9525 152.945 52.8091C153.577 53.6054 155.018 53.5486 155.018 53.5486L156.105 49.8071Z" fill="#FF5652"/>
<path d="M162.204 48.2142C162.249 48.2258 162.297 48.2258 162.343 48.2142C162.41 48.1839 162.462 48.1283 162.488 48.0596C162.514 47.991 162.512 47.9148 162.482 47.8477C162.319 47.4496 162.061 47.0974 161.73 46.822C161.4 46.5466 161.007 46.3563 160.586 46.2677C160.513 46.2568 160.439 46.2753 160.379 46.3192C160.32 46.363 160.281 46.4286 160.27 46.5015C160.264 46.5364 160.264 46.5723 160.272 46.6069C160.28 46.6415 160.294 46.6742 160.315 46.7031C160.336 46.732 160.362 46.7564 160.392 46.775C160.422 46.7935 160.456 46.8059 160.491 46.8112V46.8112C160.825 46.8847 161.137 47.038 161.399 47.2582C161.661 47.4783 161.865 47.7587 161.995 48.0752C162.016 48.1134 162.046 48.146 162.083 48.1702C162.119 48.1944 162.16 48.2095 162.204 48.2142Z" fill="#263238"/>
<path d="M153.185 46.5646C153.23 46.5728 153.277 46.5702 153.321 46.5571C153.365 46.5439 153.405 46.5205 153.438 46.4888C153.676 46.2306 153.972 46.0333 154.302 45.9134C154.632 45.7936 154.986 45.7546 155.334 45.7999C155.407 45.8114 155.481 45.795 155.542 45.754C155.603 45.7129 155.646 45.6503 155.663 45.5787C155.678 45.5083 155.664 45.4349 155.625 45.3744C155.586 45.314 155.524 45.2716 155.454 45.2564C155.018 45.1989 154.574 45.2451 154.159 45.3911C153.744 45.5372 153.369 45.779 153.065 46.097C153.013 46.1491 152.984 46.2195 152.984 46.2929C152.984 46.3663 153.013 46.4367 153.065 46.4888C153.099 46.5232 153.14 46.5492 153.185 46.5646V46.5646Z" fill="#263238"/>
<path d="M148.162 252.078C148.187 252.07 148.208 252.054 148.225 252.034C148.242 252.014 148.253 251.99 148.257 251.965C148.263 251.938 148.26 251.909 148.249 251.884C148.237 251.859 148.218 251.839 148.194 251.825C147.935 251.686 145.666 250.46 144.933 250.846C144.863 250.878 144.803 250.929 144.76 250.992C144.717 251.056 144.691 251.13 144.686 251.206V251.206C144.664 251.328 144.672 251.454 144.711 251.572C144.749 251.69 144.817 251.797 144.907 251.882C145.539 252.457 147.195 252.255 148.143 252.078H148.162ZM145.103 251.067C145.552 250.922 146.791 251.421 147.694 251.876C146.399 252.072 145.444 252.002 145.103 251.68C145.043 251.624 144.998 251.553 144.972 251.475C144.947 251.396 144.942 251.312 144.958 251.231C144.959 251.201 144.969 251.171 144.985 251.146C145.002 251.12 145.025 251.1 145.053 251.086L145.103 251.067Z" fill="#407BFF"/>
<path d="M148.161 252.079C148.182 252.066 148.2 252.048 148.211 252.025C148.223 252.002 148.227 251.977 148.224 251.952C148.224 251.889 148.148 250.315 147.44 249.696C147.338 249.606 147.219 249.538 147.089 249.496C146.96 249.453 146.823 249.437 146.688 249.449C146.302 249.449 146.189 249.671 146.151 249.829C146.012 250.461 147.339 251.763 148.047 252.091C148.085 252.099 148.125 252.095 148.161 252.079V252.079ZM146.587 249.734C146.635 249.726 146.684 249.726 146.732 249.734V249.734C146.832 249.723 146.932 249.733 147.027 249.765C147.122 249.797 147.209 249.848 147.282 249.917C147.693 250.43 147.93 251.061 147.958 251.718C147.263 251.282 146.372 250.277 146.454 249.886C146.46 249.835 146.473 249.772 146.587 249.734V249.734Z" fill="#407BFF"/>
<path d="M180.867 252.325L175.052 252.23L173.586 238.737L179.407 238.825L180.867 252.325Z" fill="#FF8B7B"/>
<path d="M174.773 251.56L181.093 251.655C181.205 251.653 181.313 251.695 181.395 251.772C181.476 251.848 181.524 251.954 181.529 252.066L181.908 257.254C181.913 257.387 181.89 257.519 181.842 257.643C181.794 257.766 181.722 257.879 181.629 257.974C181.536 258.069 181.425 258.145 181.303 258.196C181.18 258.247 181.049 258.273 180.916 258.272C178.635 258.196 177.927 258.013 175.051 257.968C171.689 257.912 173.237 258.051 169.294 257.968C166.911 257.931 166.614 255.516 167.638 255.301C170.893 254.625 171.784 253.336 173.288 251.964C173.713 251.645 174.245 251.5 174.773 251.56V251.56Z" fill="#263238"/>
<path opacity="0.2" d="M173.593 238.737L174.345 245.695L180.166 245.784L179.413 238.832L173.593 238.737Z" fill="black"/>
<path d="M175.065 179.765C172.651 153.613 173.555 133.433 169.788 123.245L149.235 122.917C149.235 122.917 158.374 164.262 161.8 181.692C165.351 199.806 171.817 242.605 171.817 242.605L181.196 242.737C181.196 242.737 180.538 199.989 175.065 179.765Z" fill="#263238"/>
<path d="M170.457 244.526L182.162 244.709L182.952 240.917L169.907 240.513L170.457 244.526Z" fill="#263238"/>
<path d="M175.911 251.996C175.938 251.998 175.965 251.991 175.988 251.977C176.011 251.964 176.03 251.944 176.042 251.92C176.054 251.895 176.059 251.868 176.056 251.842C176.053 251.815 176.042 251.79 176.025 251.769C175.835 251.548 174.129 249.601 173.339 249.715C173.263 249.726 173.19 249.756 173.128 249.802C173.066 249.849 173.017 249.91 172.985 249.98V249.98C172.928 250.09 172.897 250.213 172.897 250.337C172.897 250.462 172.928 250.584 172.985 250.694C173.352 251.453 174.982 251.838 175.918 251.996H175.911ZM173.421 249.987C173.889 249.987 174.868 250.909 175.545 251.649C174.281 251.39 173.415 251.017 173.213 250.568C173.172 250.496 173.151 250.414 173.151 250.331C173.151 250.248 173.172 250.166 173.213 250.094C173.224 250.066 173.243 250.042 173.268 250.024C173.292 250.006 173.321 249.995 173.352 249.993L173.421 249.987Z" fill="#407BFF"/>
<path d="M175.912 251.996H175.95C175.975 251.99 175.997 251.978 176.015 251.96C176.032 251.942 176.045 251.92 176.051 251.895C176.051 251.832 176.538 250.315 176.095 249.481C176.031 249.359 175.942 249.251 175.833 249.166C175.724 249.081 175.598 249.021 175.463 248.988V248.988C175.097 248.887 174.926 249.026 174.831 249.165C174.478 249.74 175.268 251.415 175.792 251.958C175.807 251.975 175.826 251.987 175.847 251.993C175.868 252 175.891 252.001 175.912 251.996V251.996ZM175.28 249.228H175.419C175.516 249.254 175.606 249.3 175.683 249.363C175.761 249.426 175.824 249.505 175.868 249.595C176.07 250.228 176.07 250.908 175.868 251.541C175.375 250.909 174.895 249.645 175.103 249.279C175.103 249.285 175.141 249.228 175.261 249.228H175.28Z" fill="#407BFF"/>
<path d="M127.57 125.527L124.195 130.469L130.876 132.51C130.876 132.51 133.404 127.682 131.103 126.007L127.57 125.527Z" fill="#FF8B7B"/>
<path d="M125.212 136.473L127.689 136.789C128.175 136.845 128.664 136.732 129.076 136.468C129.487 136.204 129.794 135.806 129.946 135.342L130.875 132.51L124.194 130.469L123.562 134.147C123.512 134.409 123.515 134.678 123.571 134.939C123.627 135.199 123.736 135.445 123.89 135.663C124.044 135.88 124.241 136.064 124.468 136.203C124.695 136.343 124.948 136.434 125.212 136.473V136.473Z" fill="#FF8B7B"/>
<path d="M149.493 77.1851C148.229 81.4827 146.99 85.795 145.777 90.1221C144.564 94.4323 143.42 98.7868 142.32 103.065C142.105 103.988 141.688 105.593 141.302 106.63C140.917 107.666 140.544 108.861 140.159 109.948C139.375 112.109 138.579 114.233 137.77 116.35L132.985 129.047L124.504 125.628C126.261 121.539 127.91 117.368 129.516 113.215C130.293 111.13 131.058 109.038 131.785 106.971C132.145 105.935 132.499 104.905 132.808 103.906C133.118 102.907 133.282 102.244 133.56 100.974C134.565 96.5179 135.652 92.1698 136.664 87.7711C137.675 83.3723 138.718 79.0115 139.704 74.6191L149.493 77.1851Z" fill="#E0E0E0"/>
<g opacity="0.6">
<path opacity="0.6" d="M149.494 77.1851C148.23 81.4827 146.991 85.795 145.778 90.1221C144.565 94.4323 143.421 98.7868 142.321 103.065C142.106 103.988 141.689 105.593 141.303 106.63C140.918 107.666 140.545 108.861 140.16 109.948C139.376 112.109 138.58 114.233 137.771 116.35L132.986 129.047L124.505 125.628C126.262 121.539 127.911 117.368 129.517 113.215C130.294 111.13 131.059 109.038 131.786 106.971C132.146 105.935 132.5 104.905 132.809 103.906C133.119 102.907 133.283 102.244 133.561 100.974C134.566 96.5179 135.653 92.1698 136.665 87.7711C137.676 83.3723 138.719 79.0115 139.704 74.6191L149.494 77.1851Z" fill="white"/>
</g>
<path d="M154.373 135.556L118.937 133.092C118.415 133.051 117.927 132.816 117.569 132.433C117.211 132.051 117.009 131.549 117.003 131.025V106.699C117 106.45 117.048 106.203 117.146 105.974C117.244 105.745 117.388 105.539 117.57 105.37C117.753 105.2 117.968 105.07 118.204 104.989C118.439 104.908 118.689 104.877 118.937 104.898L154.373 107.357C154.895 107.4 155.383 107.637 155.74 108.02C156.097 108.403 156.3 108.906 156.307 109.43V133.755C156.311 134.004 156.262 134.251 156.164 134.48C156.067 134.709 155.922 134.915 155.74 135.085C155.558 135.255 155.342 135.384 155.107 135.465C154.871 135.547 154.621 135.578 154.373 135.556V135.556Z" fill="#263238"/>
<path d="M154.987 135.196L119.55 132.731C119.028 132.691 118.54 132.456 118.182 132.073C117.825 131.691 117.623 131.189 117.616 130.665V106.339C117.613 106.09 117.661 105.843 117.759 105.614C117.857 105.385 118.002 105.179 118.184 105.01C118.366 104.84 118.582 104.71 118.817 104.629C119.052 104.548 119.302 104.517 119.55 104.538L154.987 106.996C155.508 107.039 155.995 107.274 156.353 107.656C156.71 108.038 156.913 108.54 156.92 109.063V133.395C156.924 133.644 156.875 133.891 156.778 134.12C156.68 134.349 156.535 134.555 156.353 134.725C156.171 134.894 155.955 135.024 155.72 135.105C155.484 135.187 155.235 135.218 154.987 135.196V135.196Z" fill="#1987FB"/>
<path d="M166.476 69.4619C163.569 73.7532 153.362 80.2818 151.226 90.912C148.35 80.7621 151.118 69.2028 151.118 69.2028C148.34 69.1807 145.573 69.5596 142.902 70.3278C142.033 70.5765 141.251 71.0634 140.645 71.7336C140.038 72.4038 139.632 73.2304 139.471 74.1198C137.595 85.2452 136.818 96.528 137.151 107.805C137.739 129.148 136.98 162.157 136.98 162.157C136.98 162.157 158.633 163.421 175.621 161.589C175.21 145.283 170.982 117.582 171.646 110.346C172.499 101.037 174.547 82.8667 175.602 75.3079C175.759 74.237 175.526 73.1452 174.947 72.2312C174.367 71.3172 173.478 70.6418 172.442 70.3278C170.501 69.7758 168.494 69.4846 166.476 69.4619V69.4619Z" fill="#E0E0E0"/>
<path opacity="0.7" d="M166.476 69.4619C163.569 73.7532 153.362 80.2818 151.226 90.912C148.35 80.7621 151.118 69.2028 151.118 69.2028C148.34 69.1807 145.573 69.5596 142.902 70.3278C142.033 70.5765 141.251 71.0634 140.645 71.7336C140.038 72.4038 139.632 73.2304 139.471 74.1198C137.595 85.2452 136.818 96.528 137.151 107.805C137.739 129.148 136.98 162.157 136.98 162.157C136.98 162.157 158.633 163.421 175.621 161.589C175.21 145.283 170.982 117.582 171.646 110.346C172.499 101.037 174.547 82.8603 175.602 75.3016C175.772 74.2686 175.569 73.2089 175.031 72.3109C174.493 71.413 173.654 70.7349 172.663 70.3973C170.655 69.7977 168.572 69.4828 166.476 69.4619V69.4619Z" fill="white"/>
<path d="M168.233 121.374L164.605 126.133L171.172 128.522C171.172 128.522 173.94 123.833 171.734 122.038L168.233 121.374Z" fill="#FF8B7B"/>
<path d="M165.307 132.182L167.759 132.631C168.241 132.712 168.736 132.624 169.161 132.382C169.586 132.14 169.914 131.759 170.091 131.303L171.172 128.523L164.605 126.134L163.752 129.774C163.686 130.035 163.675 130.306 163.718 130.571C163.762 130.837 163.86 131.09 164.006 131.316C164.151 131.542 164.342 131.735 164.566 131.884C164.79 132.033 165.042 132.134 165.307 132.182V132.182Z" fill="#FF8B7B"/>
<path d="M175.197 73.178C176.145 75.2573 177.03 77.2354 177.89 79.2894C178.749 81.3434 179.609 83.3721 180.418 85.4641C181.227 87.556 181.953 89.6858 182.649 91.9168C182.984 93.0417 183.281 94.192 183.552 95.437C183.679 96.069 183.792 96.701 183.881 97.3962C183.983 98.1733 184.024 98.9574 184.001 99.7409C184.001 100.006 183.963 100.278 183.938 100.544L183.837 101.176C183.761 101.605 183.672 101.909 183.59 102.282C183.413 102.914 183.224 103.546 183.034 104.14C182.642 105.303 182.231 106.377 181.802 107.432C180.942 109.55 180.026 111.559 179.09 113.563C178.155 115.566 177.232 117.538 176.265 119.504C175.298 121.469 174.369 123.409 173.364 125.4L165.269 121.09C167.323 117.431 169.263 113.607 171.058 109.821C171.942 107.925 172.783 105.998 173.529 104.133C173.902 103.198 174.256 102.237 174.54 101.378L174.736 100.746L174.888 100.145C174.888 99.9937 174.97 99.7789 174.976 99.6777V99.5071V99.1532C174.976 98.9825 174.944 98.8372 174.907 98.6349C174.85 98.2621 174.768 97.8513 174.666 97.4215C174.464 96.562 174.192 95.6393 173.883 94.7102C173.251 92.8142 172.511 90.9182 171.69 89.0222C170.868 87.1262 169.996 85.2302 169.067 83.3342C168.138 81.4382 167.171 79.5422 166.179 77.7979L175.197 73.178Z" fill="#E0E0E0"/>
<g opacity="0.7">
<path opacity="0.7" d="M175.197 73.178C176.145 75.2573 177.03 77.2354 177.89 79.2894C178.749 81.3434 179.609 83.3721 180.418 85.4641C181.227 87.556 181.953 89.6858 182.649 91.9168C182.984 93.0417 183.281 94.192 183.552 95.437C183.679 96.069 183.792 96.701 183.881 97.3962C183.983 98.1733 184.024 98.9574 184.001 99.7409C184.001 100.006 183.963 100.278 183.938 100.544L183.837 101.176C183.761 101.605 183.672 101.909 183.59 102.282C183.413 102.914 183.224 103.546 183.034 104.14C182.642 105.303 182.231 106.377 181.802 107.432C180.942 109.55 180.026 111.559 179.09 113.563C178.155 115.566 177.232 117.538 176.265 119.504C175.298 121.469 174.369 123.409 173.364 125.4L165.269 121.09C167.323 117.431 169.263 113.607 171.058 109.821C171.942 107.925 172.783 105.998 173.529 104.133C173.902 103.198 174.256 102.237 174.54 101.378L174.736 100.746L174.888 100.145C174.888 99.9937 174.97 99.7789 174.976 99.6777V99.5071V99.1532C174.976 98.9825 174.944 98.8372 174.907 98.6349C174.85 98.2621 174.768 97.8513 174.666 97.4215C174.464 96.562 174.192 95.6393 173.883 94.7102C173.251 92.8142 172.511 90.9182 171.69 89.0222C170.868 87.1262 169.996 85.2302 169.067 83.3342C168.138 81.4382 167.171 79.5422 166.179 77.7979L175.197 73.178Z" fill="white"/>
</g>
<path d="M161.838 122.342L172.12 129.692C172.12 129.692 173.561 139.557 167.924 140.524C162.286 141.491 160.833 129.452 161.838 122.342Z" fill="#1987FB"/>
<path opacity="0.5" d="M161.838 122.342L172.12 129.692C172.12 129.692 173.561 139.557 167.924 140.524C162.286 141.491 160.833 129.452 161.838 122.342Z" fill="white"/>
<path d="M140.026 122.342L136.55 129.692C136.55 129.692 135.678 139.557 137.353 140.524C139.028 141.491 140.014 129.452 140.026 122.342Z" fill="#1987FB"/>
<path opacity="0.5" d="M140.026 122.342L136.55 129.692C136.55 129.692 135.678 139.557 137.353 140.524C139.028 141.491 140.014 129.452 140.026 122.342Z" fill="white"/>
<path opacity="0.5" d="M152.205 160.173C150.562 139.431 150.796 95.9742 150.941 92.0938H151.308C151.175 95.9742 150.948 139.399 152.572 160.129L152.205 160.173Z" fill="#407BFF"/>
<path d="M200.665 59.6345C196.02 62.9967 192.158 76.1865 203.237 81.5143C214.316 86.8421 229.939 86.4123 225.218 74.8277C220.497 63.2432 222.185 56.4302 211.036 55.1093C199.888 53.7885 200.665 59.6345 200.665 59.6345Z" fill="#263238"/>
<path d="M230.521 129.034L232.758 129.812L235.602 134.122C236.017 134.752 236.203 135.507 236.126 136.258L235.962 137.788C235.938 138.041 235.823 138.277 235.638 138.453C235.454 138.628 235.212 138.731 234.957 138.742L231.987 138.843C231.718 138.847 231.457 138.753 231.252 138.579C231.047 138.404 230.913 138.161 230.875 137.895L230.495 134.4C230.495 134.4 229.054 130.911 230.521 129.034Z" fill="#FFB573"/>
<path d="M226.99 93.9143C226.939 95.5196 226.926 97.2386 226.939 98.9008C226.952 100.563 226.983 102.257 227.04 103.957C227.16 107.3 227.394 110.637 227.805 113.892L227.843 114.29C227.843 114.29 227.843 114.164 227.843 114.195C227.843 114.227 227.843 114.195 227.843 114.284V114.442L227.893 114.638C227.963 114.916 228.051 115.232 228.146 115.56C228.336 116.192 228.563 116.9 228.778 117.583C229.252 118.954 229.783 120.345 230.327 121.729C230.87 123.113 231.439 124.49 232.027 125.856C232.615 127.221 233.228 128.592 233.847 129.793L229.113 132.548C228.222 131.114 227.502 129.768 226.762 128.39C226.023 127.012 225.334 125.634 224.645 124.244C223.956 122.854 223.299 121.451 222.66 119.997C222.338 119.27 222.028 118.537 221.725 117.753C221.573 117.362 221.428 116.957 221.289 116.489L221.188 116.142L221.08 115.75C221.049 115.617 221.017 115.434 220.986 115.276C220.954 115.118 220.922 114.834 220.904 114.612L220.948 115.01C220.253 111.49 219.766 107.989 219.393 104.488C219.21 102.737 219.052 100.993 218.919 99.2357C218.786 97.4788 218.679 95.7597 218.609 93.9269L226.99 93.9143Z" fill="#1987FB"/>
<path opacity="0.5" d="M226.99 93.9143C226.939 95.5196 226.926 97.2386 226.939 98.9008C226.952 100.563 226.983 102.257 227.04 103.957C227.16 107.3 227.394 110.637 227.805 113.892L227.843 114.29C227.843 114.29 227.843 114.164 227.843 114.195C227.843 114.227 227.843 114.195 227.843 114.284V114.442L227.893 114.638C227.963 114.916 228.051 115.232 228.146 115.56C228.336 116.192 228.563 116.9 228.778 117.583C229.252 118.954 229.783 120.345 230.327 121.729C230.87 123.113 231.439 124.49 232.027 125.856C232.615 127.221 233.228 128.592 233.847 129.793L229.113 132.548C228.222 131.114 227.502 129.768 226.762 128.39C226.023 127.012 225.334 125.634 224.645 124.244C223.956 122.854 223.299 121.451 222.66 119.997C222.338 119.27 222.028 118.537 221.725 117.753C221.573 117.362 221.428 116.957 221.289 116.489L221.188 116.142L221.08 115.75C221.049 115.617 221.017 115.434 220.986 115.276C220.954 115.118 220.922 114.834 220.904 114.612L220.948 115.01C220.253 111.49 219.766 107.989 219.393 104.488C219.21 102.737 219.052 100.993 218.919 99.2357C218.786 97.4788 218.679 95.7597 218.609 93.9269L226.99 93.9143Z" fill="white"/>
<path d="M223.04 122.923C223.04 122.923 222.307 166.032 220.512 183.481C218.224 206.233 212.087 225.446 210.64 241.164L205.559 240.437C205.559 240.437 205.23 201.955 209.85 183.557C205.66 164.047 205.559 122.948 205.559 122.948L223.04 122.923Z" fill="#FFB573"/>
<path d="M220.031 253.779C219.312 253.265 218.516 252.868 217.674 252.603V252.603C217.674 252.603 213.484 250.271 211.17 243.25L207.928 242.447C207.434 242.302 206.904 242.331 206.429 242.53C205.954 242.729 205.561 243.086 205.318 243.54C205.25 243.666 205.208 243.803 205.192 243.945C205.158 244.706 205.175 245.468 205.242 246.226C205.337 248.603 205.723 253.937 205.723 253.937H206.279C206.244 252.321 206.305 250.704 206.462 249.096C206.702 247.528 207.852 249.38 208.51 251.15C209.167 252.919 211.67 254.803 215.316 254.891C219.57 254.973 221.282 254.809 220.031 253.779Z" fill="#263238"/>
<path d="M205.893 243.597C205.541 242.118 205.306 240.613 205.191 239.097L211.195 239.843C211.195 239.843 211.151 243.496 212.251 245.942C210.057 245.379 207.927 244.593 205.893 243.597V243.597Z" fill="#263238"/>
<path d="M218.621 122.923C218.621 122.923 211.416 166.493 207.359 183.981C202.069 206.796 201.336 242.725 201.336 242.725L196.564 242.264C196.564 242.264 191.078 209.507 196.981 183.981C196.539 164.389 200.356 122.923 200.356 122.923H218.621Z" fill="#FFB573"/>
<path d="M207.296 253.779C206.653 253.258 205.92 252.86 205.134 252.603C205.134 252.603 202.783 250.271 201.652 243.25L198.574 242.447C198.052 242.32 197.503 242.357 197.002 242.553C196.501 242.748 196.073 243.093 195.774 243.54C195.689 243.664 195.623 243.801 195.578 243.945C195.42 244.697 195.31 245.459 195.25 246.226C194.94 248.603 195.205 253.937 195.205 253.937H195.762L195.983 249.096C196.065 247.452 197.323 249.38 197.683 251.15C198.043 252.919 198.808 254.802 202.41 254.891C206.613 254.973 208.357 254.809 207.296 253.779Z" fill="#263238"/>
<path d="M195.666 243.597C195.464 241.954 195.4 239.097 195.4 239.097L202.239 239.856C202.239 239.856 201.411 243.104 202.093 245.544C198.649 244.64 195.666 243.597 195.666 243.597Z" fill="#263238"/>
<path d="M226.071 91.9549C226.324 96.1387 226.519 107.963 224.27 126.045H199.767C199.799 117.285 200.513 108.899 196.518 92.4289C196.363 91.8312 196.336 91.2071 196.441 90.5983C196.545 89.9895 196.778 89.41 197.125 88.8986C197.471 88.3871 197.923 87.9555 198.449 87.6324C198.976 87.3094 199.565 87.1024 200.178 87.0253C201.562 86.8483 203.142 86.6903 204.791 86.6145C208.334 86.3551 211.891 86.3551 215.434 86.6145C217.735 86.823 220.2 87.1896 222.077 87.5119C223.145 87.6958 224.12 88.2342 224.845 89.0403C225.569 89.8464 226.001 90.8731 226.071 91.9549V91.9549Z" fill="white"/>
<path d="M206.623 75.0364C207.426 78.4618 208.336 84.7313 206.029 87.0444C206.029 87.0444 208.165 90.4382 214.783 93.2949C218.429 91.0892 216.679 87.0444 216.679 87.0444C212.823 86.1343 212.817 83.2966 213.379 80.6359L206.623 75.0364Z" fill="#FFB573"/>
<path opacity="0.2" d="M209.38 77.3118L213.374 80.6108C213.23 81.2335 213.143 81.8682 213.115 82.5068C211.649 82.2919 209.582 80.693 209.367 79.1635C209.259 78.5506 209.263 77.9231 209.38 77.3118V77.3118Z" fill="black"/>
<path d="M202.776 68.7542C204.319 74.3221 204.862 76.7111 208.224 79.1064C213.28 82.7214 219.524 79.89 219.6 74.0504C219.676 68.7858 217.136 60.5571 211.34 59.2679C205.545 57.9786 201.228 63.18 202.776 68.7542Z" fill="#FFB573"/>
<path d="M203.913 71.6931C205.272 70.5176 206.625 65.3731 205.917 63.1864C210.777 63.5845 214.828 61.8718 216.787 63.5276C216.996 60.9996 214.746 57.5742 210.745 57.6121C206.745 57.65 197.126 62.4596 203.913 71.6931Z" fill="#263238"/>
<path d="M210.505 68.9376C210.6 69.3989 210.923 69.7276 211.22 69.6707C211.517 69.6138 211.681 69.203 211.58 68.748C211.479 68.2929 211.163 67.958 210.866 68.0148C210.569 68.0717 210.404 68.4825 210.505 68.9376Z" fill="#263238"/>
<path d="M215.998 67.9327C216.099 68.394 216.421 68.7227 216.718 68.6658C217.015 68.6089 217.18 68.1981 217.079 67.7431C216.977 67.288 216.661 66.9531 216.358 67.01C216.055 67.0668 215.903 67.4776 215.998 67.9327Z" fill="#263238"/>
<path d="M216.238 67.0544L217.262 66.5425C217.262 66.5425 216.883 67.5031 216.238 67.0544Z" fill="#263238"/>
<path d="M215.195 68.925C215.827 69.8997 216.586 70.786 217.452 71.5605C217.253 71.7706 217.009 71.9336 216.739 72.0375C216.469 72.1414 216.179 72.1836 215.891 72.1609L215.195 68.925Z" fill="#ED893E"/>
<path d="M214.051 74.4676C214.312 74.4656 214.572 74.4402 214.828 74.3917C214.846 74.3888 214.862 74.3823 214.877 74.3725C214.892 74.3628 214.904 74.3501 214.914 74.3352C214.924 74.3203 214.93 74.3036 214.932 74.2861C214.935 74.2686 214.934 74.2508 214.929 74.2337C214.92 74.1985 214.899 74.168 214.868 74.1481C214.838 74.1282 214.801 74.1204 214.765 74.1263C214.192 74.2362 213.601 74.2124 213.039 74.0568C212.477 73.9011 211.958 73.6178 211.523 73.2288C211.497 73.203 211.462 73.1885 211.425 73.1885C211.388 73.1885 211.353 73.203 211.327 73.2288C211.303 73.2556 211.289 73.2906 211.289 73.3268C211.289 73.363 211.303 73.398 211.327 73.4248C212.072 74.1022 213.044 74.4745 214.051 74.4676Z" fill="#263238"/>
<path d="M201.518 72.6158C202.129 73.5629 203.079 74.241 204.173 74.5118C205.626 74.8531 206.239 73.5702 205.746 72.2619C205.304 71.0801 204.021 69.4811 202.586 69.7339C201.152 69.9867 200.785 71.453 201.518 72.6158Z" fill="#FFB573"/>
<path d="M209.286 66.5739C209.324 66.5704 209.36 66.559 209.392 66.5405C209.425 66.522 209.454 66.4967 209.476 66.4664C209.674 66.1916 209.935 65.9687 210.238 65.8168C210.54 65.665 210.875 65.5886 211.214 65.5942C211.285 65.5995 211.355 65.5766 211.41 65.5305C211.464 65.4844 211.498 65.4188 211.504 65.3478C211.505 65.2751 211.479 65.2048 211.431 65.1501C211.383 65.0953 211.317 65.06 211.245 65.0507C210.816 65.0367 210.391 65.1278 210.005 65.3162C209.619 65.5046 209.286 65.7845 209.033 66.1314C208.991 66.1893 208.973 66.2617 208.983 66.3328C208.994 66.4039 209.033 66.4678 209.09 66.5107C209.147 66.5514 209.216 66.5735 209.286 66.5739V66.5739Z" fill="#263238"/>
<path d="M217.812 64.8802C217.845 64.8679 217.874 64.8492 217.899 64.8253C217.924 64.8015 217.944 64.7728 217.958 64.7411C217.972 64.7084 217.98 64.673 217.981 64.6371C217.982 64.6012 217.976 64.5655 217.963 64.532C217.95 64.4985 217.931 64.4679 217.906 64.442C217.881 64.416 217.851 64.3953 217.819 64.3809C217.433 64.1804 217.005 64.0757 216.57 64.0757C216.136 64.0757 215.708 64.1804 215.322 64.3809C215.292 64.4002 215.265 64.4253 215.244 64.4549C215.224 64.4845 215.209 64.5179 215.201 64.5532C215.194 64.5886 215.193 64.625 215.2 64.6605C215.207 64.6961 215.22 64.7299 215.24 64.7601C215.279 64.8214 215.34 64.8653 215.411 64.883C215.481 64.9006 215.556 64.8905 215.619 64.8549C215.925 64.6964 216.264 64.6137 216.608 64.6137C216.953 64.6137 217.292 64.6964 217.597 64.8549C217.629 64.8743 217.665 64.8867 217.702 64.891C217.739 64.8954 217.777 64.8917 217.812 64.8802V64.8802Z" fill="#263238"/>
<path d="M210.74 68.059L211.764 67.5471C211.764 67.5471 211.385 68.533 210.74 68.059Z" fill="#263238"/>
<path d="M224.271 126.045L224.758 193.069C213.382 193.998 202.505 193.65 192.241 191.64C191.565 166.493 186.648 138.78 199.768 126.045H224.271Z" fill="#263238"/>
<path opacity="0.2" d="M211.599 171.404L209.033 149.347L215.195 142.983L211.599 171.404Z" fill="black"/>
<path d="M227.178 96.1136C226.868 90.2296 225.914 87.8976 222.046 87.1897C218.178 86.4819 214.544 86.0774 214.544 86.0774C215.86 86.9382 216.976 88.0717 217.816 89.4012C218.655 90.7306 219.2 92.2249 219.412 93.783C219.624 95.341 219.499 96.9265 219.045 98.4321C218.591 99.9376 217.819 101.328 216.782 102.509C214.178 97.6683 204.3 90.0843 206.67 86.1343C204.36 86.0166 202.044 86.1822 199.774 86.6272C195.982 87.3604 194.87 89.9832 195.805 95.8228C198.213 110.738 196.374 128.851 196.374 128.851C196.374 128.851 210.487 135.5 215.176 136.77C222.64 134.95 224.283 129.73 224.283 129.73C224.283 129.73 227.519 102.029 227.178 96.1136Z" fill="#1987FB"/>
<path opacity="0.6" d="M227.178 96.1136C226.868 90.2296 225.914 87.8976 222.046 87.1897C218.178 86.4819 214.544 86.0774 214.544 86.0774C215.86 86.9382 216.976 88.0717 217.816 89.4012C218.655 90.7306 219.2 92.2249 219.412 93.783C219.624 95.341 219.499 96.9265 219.045 98.432C218.591 99.9376 217.819 101.328 216.782 102.509C214.178 97.6683 204.3 90.0843 206.67 86.1343C204.36 86.0166 202.044 86.1822 199.774 86.6272C195.982 87.3604 194.87 89.9832 195.805 95.8228C198.213 110.738 196.374 128.851 196.374 128.851C196.374 128.851 210.487 135.5 215.176 136.77C222.64 134.95 224.283 129.73 224.283 129.73C224.283 129.73 227.519 102.029 227.178 96.1136Z" fill="white"/>
<path d="M206.152 107.54C203.523 103.704 201.551 98.0601 203.08 95.2098C203.366 94.6843 203.796 94.2522 204.321 93.9652C204.846 93.6782 205.442 93.5486 206.038 93.5919C206.549 93.589 207.055 93.6945 207.523 93.9015C207.99 94.1085 208.408 94.4122 208.749 94.7927C210.456 96.6571 211.05 100.531 210.563 106.624L209.931 106.573C210.399 100.746 209.843 96.9289 208.288 95.2288C208.008 94.9115 207.662 94.6586 207.275 94.4874C206.888 94.3161 206.468 94.2305 206.045 94.2365C205.568 94.1961 205.09 94.2939 204.667 94.518C204.245 94.7422 203.896 95.0833 203.662 95.5005C202.442 97.7884 203.776 102.914 206.695 107.167L206.152 107.54Z" fill="#263238"/>
<path d="M206.689 108.665C207.223 108.665 207.656 108.034 207.656 107.256C207.656 106.477 207.223 105.846 206.689 105.846C206.155 105.846 205.722 106.477 205.722 107.256C205.722 108.034 206.155 108.665 206.689 108.665Z" fill="#263238"/>
<path d="M211.308 106.877C211.308 107.654 210.872 108.286 210.341 108.286C209.81 108.286 209.374 107.654 209.374 106.877C209.374 106.099 209.81 105.467 210.341 105.467C210.872 105.467 211.308 106.099 211.308 106.877Z" fill="#263238"/>
<path d="M223.791 95.3996C223.812 95.7108 223.741 96.0213 223.586 96.2923C223.432 96.5633 223.201 96.7827 222.922 96.923C222.644 97.0634 222.33 97.1185 222.02 97.0814C221.71 97.0444 221.418 96.9169 221.181 96.7148C220.943 96.5127 220.77 96.2451 220.684 95.9453C220.598 95.6456 220.602 95.327 220.695 95.0295C220.789 94.732 220.969 94.4687 221.211 94.2726C221.454 94.0765 221.749 93.9563 222.059 93.927C222.484 93.8938 222.905 94.0301 223.229 94.306C223.554 94.5819 223.756 94.9751 223.791 95.3996V95.3996Z" fill="#263238"/>
<path d="M205.722 94.2492C205.657 94.2483 205.594 94.2279 205.541 94.1907C205.488 94.1535 205.448 94.1013 205.425 94.0407C204.575 91.4663 204.322 88.7324 204.685 86.0459C204.689 86.0037 204.702 85.9627 204.722 85.9254C204.742 85.8881 204.769 85.8552 204.802 85.8287C204.835 85.8022 204.873 85.7826 204.914 85.771C204.954 85.7595 204.997 85.7562 205.039 85.7615C205.124 85.771 205.201 85.8136 205.254 85.8799C205.308 85.9462 205.332 86.0308 205.324 86.1154C204.998 88.7023 205.239 91.3291 206.031 93.8132C206.048 93.8521 206.056 93.8939 206.056 93.9362C206.056 93.9784 206.048 94.0202 206.031 94.0591C206.015 94.098 205.99 94.1332 205.96 94.1626C205.93 94.192 205.894 94.215 205.854 94.2303C205.812 94.2469 205.767 94.2534 205.722 94.2492V94.2492Z" fill="#263238"/>
<path d="M222.823 95.3806C222.74 95.3807 222.661 95.3494 222.601 95.293C222.541 95.2366 222.505 95.1594 222.5 95.0772C222.5 95.0077 222.052 87.9356 216.522 86.6337C216.439 86.6141 216.367 86.5626 216.322 86.4904C216.277 86.4182 216.263 86.3311 216.282 86.2482C216.303 86.1649 216.355 86.0931 216.429 86.0482C216.502 86.0033 216.59 85.9889 216.673 86.008C222.671 87.4237 223.139 94.9698 223.145 95.0456C223.148 95.0876 223.142 95.1297 223.128 95.1695C223.114 95.2092 223.092 95.2457 223.064 95.2769C223.036 95.3081 223.001 95.3334 222.963 95.3512C222.925 95.369 222.884 95.379 222.842 95.3806H222.823Z" fill="#263238"/>
<path d="M206.822 119.561L212.352 98.4964C212.449 98.1756 212.648 97.8948 212.918 97.6956C213.187 97.4964 213.514 97.3894 213.849 97.3904L228.91 97.9529C229.056 97.95 229.2 97.9819 229.331 98.046C229.462 98.11 229.575 98.2043 229.662 98.3211C229.75 98.4379 229.808 98.5738 229.832 98.7175C229.856 98.8612 229.845 99.0085 229.801 99.1473L224.246 120.212C224.149 120.533 223.951 120.815 223.681 121.014C223.411 121.213 223.084 121.32 222.748 121.318L207.694 120.755C207.55 120.755 207.408 120.721 207.279 120.656C207.151 120.59 207.04 120.496 206.955 120.379C206.87 120.263 206.813 120.128 206.79 119.986C206.767 119.844 206.778 119.698 206.822 119.561V119.561Z" fill="#263238"/>
<path d="M206.978 119.934L212.534 98.8692C212.63 98.5474 212.828 98.2655 213.098 98.066C213.368 97.8665 213.696 97.7602 214.031 97.7632L229.086 98.3257C229.232 98.3214 229.377 98.3524 229.508 98.416C229.64 98.4796 229.754 98.574 229.842 98.6912C229.929 98.8084 229.987 98.9449 230.011 99.0892C230.034 99.2335 230.023 99.3814 229.977 99.5202L224.428 120.591C224.329 120.912 224.129 121.192 223.858 121.39C223.587 121.588 223.259 121.694 222.924 121.691L207.869 121.128C207.723 121.133 207.578 121.102 207.447 121.038C207.315 120.974 207.201 120.88 207.113 120.763C207.026 120.646 206.968 120.509 206.944 120.365C206.921 120.22 206.933 120.073 206.978 119.934Z" fill="#1987FB"/>
<path d="M205 112.83L205.265 110.473L208.855 106.757C209.382 106.217 210.078 105.875 210.827 105.79L212.356 105.613C212.609 105.581 212.864 105.642 213.076 105.783C213.287 105.925 213.44 106.138 213.507 106.384L214.252 109.266C214.308 109.523 214.269 109.792 214.144 110.024C214.019 110.255 213.816 110.435 213.57 110.53L210.239 111.655C210.239 111.655 207.155 113.854 205 112.83Z" fill="#FFB573"/>
<path d="M203.238 93.4213C203.01 93.7183 202.72 94.1228 202.46 94.483L201.67 95.627C201.144 96.398 200.638 97.1796 200.154 97.9717C199.185 99.5391 198.297 101.155 197.493 102.813C196.723 104.395 196.089 106.04 195.597 107.73C195.138 109.194 194.94 110.728 195.009 112.261L193.587 109.916C193.189 109.664 193.202 109.752 193.29 109.771C193.449 109.822 193.612 109.86 193.777 109.885C194.263 109.97 194.755 110.02 195.249 110.037C196.386 110.069 197.523 110.033 198.656 109.929C199.819 109.828 200.982 109.664 202.119 109.449C203.229 109.242 204.323 108.956 205.393 108.596L207.491 113.652C206.205 114.234 204.879 114.722 203.522 115.112C202.208 115.5 200.875 115.821 199.528 116.072C198.149 116.333 196.757 116.51 195.357 116.603C194.584 116.654 193.81 116.654 193.037 116.603C192.569 116.574 192.104 116.509 191.647 116.407C190.913 116.26 190.216 115.966 189.599 115.541V115.541L188.405 114.758L188.177 113.203C187.857 110.795 187.984 108.348 188.55 105.985C189.037 103.849 189.705 101.758 190.547 99.735C191.352 97.7812 192.257 95.87 193.258 94.009C193.751 93.0863 194.263 92.1741 194.794 91.2725L195.616 89.9263C195.9 89.465 196.159 89.0542 196.507 88.5422L203.238 93.4213Z" fill="#1987FB"/>
<path opacity="0.6" d="M203.238 93.4213C203.01 93.7183 202.72 94.1228 202.46 94.483L201.67 95.627C201.144 96.398 200.638 97.1796 200.154 97.9717C199.185 99.5391 198.297 101.155 197.493 102.813C196.723 104.395 196.089 106.04 195.597 107.73C195.138 109.194 194.94 110.728 195.009 112.261L193.587 109.916C193.189 109.664 193.202 109.752 193.29 109.771C193.449 109.822 193.612 109.86 193.777 109.885C194.263 109.97 194.755 110.02 195.249 110.037C196.386 110.069 197.523 110.033 198.656 109.929C199.819 109.828 200.982 109.664 202.119 109.449C203.229 109.242 204.323 108.956 205.393 108.596L207.491 113.652C206.205 114.234 204.879 114.722 203.522 115.112C202.208 115.5 200.875 115.821 199.528 116.072C198.149 116.333 196.757 116.51 195.357 116.603C194.584 116.654 193.81 116.654 193.037 116.603C192.569 116.574 192.104 116.509 191.647 116.407C190.913 116.26 190.216 115.966 189.599 115.541V115.541L188.405 114.758L188.177 113.203C187.857 110.795 187.984 108.348 188.55 105.985C189.037 103.849 189.705 101.758 190.547 99.735C191.352 97.7812 192.257 95.87 193.258 94.009C193.751 93.0863 194.263 92.1741 194.794 91.2725L195.616 89.9263C195.9 89.465 196.159 89.0542 196.507 88.5422L203.238 93.4213Z" fill="white"/>
</svg>
